<svg version="1.1" id="Layer_1" xmlns="http://www.w3.org/2000/svg" xmlns:xlink="http://www.w3.org/1999/xlink" x="0px" y="0px"
	 width="100%" viewBox="0 0 600 165" enable-background="new 0 0 600 165" xml:space="preserve">
<path fill="#000000" opacity="1.000000" stroke="none" 
	d="
M397.000000,166.000000 
	C264.666656,166.000000 132.833328,166.000000 1.000000,166.000000 
	C1.000000,111.000000 1.000000,56.000000 1.000000,1.000000 
	C201.000000,1.000000 401.000000,1.000000 601.000000,1.000000 
	C601.000000,56.000000 601.000000,111.000000 601.000000,166.000000 
	C533.166687,166.000000 465.333344,166.000000 397.000000,166.000000 
M442.002441,74.404327 
	C441.682129,74.244789 441.361816,74.085251 441.032654,73.984100 
	C441.032654,73.984100 441.088196,73.964027 441.179108,73.274673 
	C440.462982,72.154625 439.746826,71.034569 438.992889,69.982674 
	C438.992889,69.982674 439.061005,70.020500 438.848724,69.529564 
	C438.558899,69.333138 438.269073,69.136703 438.006042,69.021362 
	C438.006042,69.021362 438.087128,68.994606 437.911163,68.344261 
	C436.942566,67.549324 435.973999,66.754387 434.885834,65.271667 
	C433.316498,62.839745 431.747131,60.407818 429.993622,57.331314 
	C429.346039,56.456619 428.698456,55.581924 427.887146,54.376900 
	C427.736053,54.170368 427.537750,54.031124 426.992096,53.364120 
	C426.334198,52.882587 425.676331,52.401058 425.016876,51.989361 
	C425.016876,51.989361 425.086731,51.989075 425.199432,51.288155 
	C424.474792,50.160248 423.750153,49.032341 423.013336,47.982536 
	C423.013336,47.982536 423.091461,47.994637 422.780060,47.410069 
	C421.528290,45.913216 420.276520,44.416363 419.009094,42.991482 
	C419.009094,42.991482 419.081055,43.007114 418.943359,42.355976 
	C418.321869,41.870754 417.700348,41.385532 417.078796,40.964478 
	C417.078796,40.964478 417.119507,40.914875 417.245544,40.189445 
	C415.173798,37.400154 413.102051,34.610863 410.734833,31.224504 
	C407.578491,27.132191 404.422119,23.039877 401.043182,18.262152 
	C399.947693,16.797258 398.852234,15.332366 397.756775,13.867473 
	C397.211456,14.119794 396.666107,14.372116 396.120789,14.624438 
	C396.120789,16.389122 396.120789,18.153805 396.028992,20.614864 
	C396.027863,21.082836 396.026703,21.550808 395.693390,22.768200 
	C395.503967,26.159779 395.314514,29.551357 395.024872,33.722778 
	C395.048065,34.507496 395.071259,35.292217 394.942474,36.875408 
	C394.689270,40.223186 394.436035,43.570965 394.094177,47.658260 
	C394.120575,48.153278 394.146973,48.648293 394.160370,49.482182 
	C394.160370,49.482182 394.206207,49.818192 394.109253,50.741306 
	C393.112610,61.768368 391.963257,72.784424 391.167419,83.825958 
	C390.524506,92.746124 390.344971,101.698929 389.880981,110.633163 
	C389.726898,113.599548 391.126740,114.577293 393.812866,114.049034 
	C395.262756,113.763893 396.664581,113.234528 398.761810,112.570564 
	C410.875092,108.411552 422.988342,104.252541 435.775940,100.056274 
	C436.220856,99.990852 436.665741,99.925430 437.536469,99.693138 
	C437.777191,99.497971 437.970215,99.263550 438.881012,98.974945 
	C443.088684,97.676262 447.394897,96.617332 451.451324,94.950577 
	C452.896210,94.356880 453.735260,92.288765 454.688690,90.425690 
	C454.492859,90.155823 454.263062,89.918922 453.825989,89.385239 
	C453.669464,89.181610 453.469208,89.039627 453.048828,88.311012 
	C452.040863,87.176292 451.032898,86.041573 450.005585,84.989594 
	C450.005585,84.989594 450.088348,85.008896 449.941467,84.361687 
	C449.310944,83.880646 448.680450,83.399605 448.020599,82.971405 
	C448.020599,82.971405 448.080658,82.978310 448.158173,82.356201 
	C447.774902,81.881767 447.391632,81.407333 447.032074,81.011604 
	C447.032074,81.011604 447.110748,80.987854 446.964478,80.337883 
	C445.985565,79.196373 445.006653,78.054855 444.005066,76.983681 
	C444.005066,76.983681 444.075439,77.006294 443.914246,76.376289 
	C443.288055,75.891403 442.661865,75.406517 442.014313,74.977249 
	C442.014313,74.977249 442.073730,74.972610 442.002441,74.404327 
M349.993896,65.981438 
	C349.993896,65.981438 349.961670,65.931091 349.324310,66.004456 
	C348.822327,66.658989 348.320312,67.313515 347.254456,68.312767 
	C343.471558,73.178123 339.688629,78.043472 335.477936,83.178322 
	C335.294525,83.457466 335.111115,83.736610 334.998779,83.981544 
	C334.998779,83.981544 334.964539,83.910477 334.403656,84.266953 
	C333.096039,85.733803 331.987000,87.175262 334.956848,88.102791 
	C334.956848,88.102791 334.901978,88.078545 334.955902,88.788696 
	C337.610443,90.138596 340.264954,91.488487 343.543823,93.193657 
	C347.019104,94.795074 350.494385,96.396492 354.181702,98.361153 
	C354.342010,98.611488 354.567688,98.766785 355.337982,98.957977 
	C355.337982,98.957977 355.829468,99.030319 356.230103,99.608597 
	C362.488281,102.765114 368.746490,105.921631 375.022705,109.000946 
	C375.022705,109.000946 374.945526,108.982841 375.145477,109.429161 
	C375.336365,109.721092 375.604462,109.891502 376.327606,110.030846 
	C376.327606,110.030846 376.715637,110.050217 377.114563,110.596939 
	C378.083954,111.090706 379.053375,111.584465 380.001251,111.994667 
	C380.001251,111.994667 379.917694,112.016151 380.369354,112.519516 
	C381.247101,112.683334 382.124847,112.847153 383.548492,113.366722 
	C384.377258,112.390297 385.870453,111.455086 385.933960,110.431198 
	C386.728912,97.616661 387.316803,84.789284 388.375122,71.252625 
	C388.885132,62.862007 389.395142,54.471390 390.017273,45.360073 
	C390.075165,44.633045 390.133057,43.906021 390.722961,42.510700 
	C391.210083,33.618000 391.697174,24.725304 392.184265,15.832605 
	C391.610840,15.673802 391.037415,15.514999 390.463989,15.356195 
	C389.586517,16.548059 388.709015,17.739922 387.271332,19.275894 
	C385.169250,21.793335 383.067200,24.310774 380.404663,27.222908 
	C379.240051,29.128325 378.075439,31.033739 376.972687,32.969109 
	C376.972687,32.969109 376.933716,32.912525 376.239563,32.932575 
	C373.403931,36.271221 370.568268,39.609867 367.201050,43.331131 
	C364.763031,46.525574 362.325043,49.720016 359.345856,53.282196 
	C358.506256,54.505951 357.666687,55.729702 356.923645,56.977982 
	C356.923645,56.977982 356.948151,56.881439 356.382019,57.207127 
	C354.954834,58.796459 353.527679,60.385792 351.828735,62.437069 
	C351.536224,62.884953 351.243744,63.332836 350.486755,64.224434 
	C350.302765,64.813065 350.118774,65.401695 349.993896,65.981438 
M296.016113,86.981522 
	C296.016113,86.981522 295.918579,86.975075 296.062012,87.630936 
	C296.691193,88.521622 297.320404,89.412308 297.983887,90.803436 
	C298.235748,91.217377 298.487610,91.631325 298.973785,92.711594 
	C300.300140,94.897888 301.626495,97.084183 303.007507,99.674728 
	C303.007507,99.674728 303.138428,100.061058 303.432495,100.566467 
	C303.949738,100.739716 304.466949,100.912964 304.974274,101.019669 
	C304.974274,101.019669 304.909149,101.036522 304.832581,101.771286 
	C306.232941,103.449226 307.633331,105.127167 309.955475,106.914940 
	C313.945374,106.928467 317.943573,107.085495 321.919373,106.855293 
	C322.921661,106.797264 323.852264,105.500626 324.815796,104.773178 
	C324.283447,104.153046 323.751099,103.532913 323.162201,102.894157 
	C323.162201,102.894157 323.169708,102.953209 323.454712,102.450012 
	C323.363953,102.280312 323.273193,102.110603 323.003296,101.263023 
	C321.679718,99.144699 320.356110,97.026367 319.025024,94.992928 
	C319.025024,94.992928 319.109924,95.000374 318.945984,94.328537 
	C317.976135,92.823898 317.006256,91.319260 315.986786,89.357910 
	C315.986786,89.357910 315.879944,88.911102 315.703674,88.444267 
	C315.464844,88.212807 315.225983,87.981339 314.911407,87.081024 
	C313.319794,84.377998 311.728180,81.674965 309.964172,78.335251 
	C309.331146,77.462685 308.698090,76.590111 308.033630,75.345383 
	C308.033630,75.345383 307.942688,74.983139 307.807159,74.535294 
	C307.652008,74.257050 307.441956,74.029427 307.040771,73.324951 
	C306.771484,72.863701 306.502167,72.402458 305.974854,71.298836 
	C304.696472,69.159744 303.418091,67.020653 302.132690,64.165878 
	C302.565704,63.120296 302.891052,62.013020 303.449097,61.039070 
	C307.268860,54.372185 311.137451,47.733276 315.365906,40.849407 
	C315.631653,40.681290 315.794891,40.442970 315.981720,39.676720 
	C315.981720,39.676720 316.022888,39.203739 316.590576,38.794018 
	C318.770599,34.550148 320.950623,30.306282 323.091522,26.108086 
	C323.091522,26.108086 323.149414,26.124371 323.774811,26.113295 
	C324.198395,25.424221 324.621979,24.735147 325.242645,23.843998 
	C325.242645,23.843998 325.216675,23.458914 325.216675,23.458914 
	C325.216675,23.458914 324.854279,23.290874 324.280670,23.247604 
	C323.897858,23.263958 323.515015,23.280310 322.191040,23.152412 
	C316.856720,23.462448 311.522369,23.772482 305.836823,24.680113 
	C303.521820,29.103926 301.206818,33.527740 298.959808,37.985352 
	C298.959808,37.985352 298.911163,37.927147 298.288086,38.142639 
	C297.496490,39.430435 296.704926,40.718231 296.000031,42.016048 
	C296.000031,42.016048 296.010101,41.929356 295.492126,42.291149 
	C295.238312,42.866112 294.984528,43.441074 294.256561,44.480347 
	C292.500000,47.945812 290.743439,51.411274 288.392731,54.299091 
	C288.261200,47.867889 288.203979,41.433994 287.970520,35.006493 
	C287.829041,31.110840 287.414764,27.225094 286.178619,23.239166 
	C281.427887,23.241819 276.677155,23.244473 271.392212,23.848068 
	C271.304016,45.855587 271.215820,67.863106 271.017731,90.802780 
	C271.057098,94.240158 271.096436,97.677544 271.074707,101.860413 
	C271.377136,103.251770 271.679565,104.643135 272.635529,106.558189 
	C276.508484,106.687569 280.397583,107.061272 284.245117,106.806511 
	C285.498444,106.723526 286.643219,105.000679 287.956146,103.093391 
	C287.930176,95.437576 287.904175,87.781769 287.962067,79.392883 
	C287.941223,78.902039 287.920410,78.411194 287.948120,77.311104 
	C287.931854,76.904312 287.915588,76.497528 288.027405,75.465652 
	C288.084564,75.044136 288.141724,74.622620 288.585114,74.162979 
	C288.585114,74.162979 288.973145,74.172928 289.077637,74.864182 
	C291.002991,78.241013 292.928314,81.617851 295.012360,85.590530 
	C295.344818,86.086708 295.677246,86.582886 296.016113,86.981522 
M532.448181,28.249319 
	C531.576965,29.152603 530.705750,30.055885 529.477173,31.192221 
	C529.253723,31.377541 529.084106,31.603306 528.438354,32.237015 
	C527.710510,33.469601 526.982666,34.702187 526.103821,36.869976 
	C526.109192,43.946285 526.114563,51.022598 526.069824,58.795433 
	C526.085938,59.493046 526.101990,60.190662 526.013306,61.723587 
	C526.041443,62.843708 526.069580,63.963825 526.036499,65.982765 
	C526.062439,69.283447 526.088440,72.584122 526.007751,76.830711 
	C526.002319,81.602867 525.855103,86.381363 526.067993,91.143753 
	C526.142944,92.820465 526.671570,94.837090 527.736816,96.039551 
	C530.559143,99.225281 533.787659,102.051170 537.428589,105.564865 
	C538.985413,106.039055 540.533691,106.886604 542.100525,106.922531 
	C548.725647,107.074463 555.384583,107.335152 561.970032,106.801094 
	C564.405151,106.603592 566.671753,104.329002 569.616455,102.707611 
	C573.182556,99.124886 578.010986,96.349976 578.010437,90.396011 
	C578.008972,73.905304 577.934753,57.414593 577.907532,40.513336 
	C577.907532,40.513336 577.861877,40.104923 577.933350,39.304916 
	C578.278687,32.445267 572.010681,30.197380 568.426819,26.213692 
	C566.661804,24.251808 563.366394,22.814022 560.691467,22.689894 
	C553.783203,22.369322 546.830872,22.831255 539.906067,23.178583 
	C538.560852,23.246054 537.260559,24.209589 535.422913,25.131313 
	C534.579346,26.078913 533.735779,27.026514 532.969543,27.984974 
	C532.969543,27.984974 532.980408,27.907581 532.448181,28.249319 
M99.441925,32.208912 
	C98.649460,33.131382 97.857002,34.053848 97.078102,35.549366 
	C97.097900,35.739410 97.117691,35.929451 97.073433,37.039230 
	C97.099289,49.641899 97.125145,62.244568 97.075066,75.798271 
	C97.050415,78.796951 97.288368,81.825302 96.953598,84.788948 
	C95.786911,95.117249 101.944778,100.615479 110.132271,105.819229 
	C117.775459,106.186386 125.416298,106.677010 133.063705,106.822830 
	C134.713165,106.854279 136.386322,105.642982 138.646301,104.714409 
	C141.136703,102.269295 143.923279,100.049889 146.017105,97.302528 
	C147.500366,95.356277 148.850128,92.707550 148.883255,90.353043 
	C149.121826,73.388641 149.046585,56.419094 148.949860,39.451866 
	C148.940018,37.727795 148.575989,35.692623 147.617615,34.339012 
	C142.278625,26.798275 136.170059,20.745045 125.566299,22.919207 
	C122.403610,23.567677 118.952667,22.730167 115.633499,22.723597 
	C113.394600,22.719166 111.155182,22.977800 108.415031,23.278248 
	C108.159218,23.517744 107.903397,23.757240 107.221664,24.241014 
	C106.794998,24.730894 106.368324,25.220772 105.416367,26.126726 
	C104.918427,27.080376 104.420486,28.034025 103.987350,28.982555 
	C103.987350,28.982555 103.970375,28.919815 103.305794,28.947840 
	C102.171570,29.958580 101.037354,30.969318 99.983337,31.983183 
	C99.983337,31.983183 99.986450,31.902981 99.441925,32.208912 
M210.996933,40.161819 
	C212.262421,32.723312 205.980347,30.016195 201.533310,25.324657 
	C199.565414,24.583761 197.602631,23.220201 195.628784,23.204012 
	C183.698456,23.106163 171.765610,23.316395 159.109039,23.581163 
	C158.755692,24.623802 158.096313,25.665712 158.093826,26.709187 
	C158.034348,51.679852 158.020370,76.650780 158.122208,101.621170 
	C158.126938,102.782143 159.281540,103.938431 159.983200,105.006409 
	C159.983200,105.006409 159.907761,105.097534 160.124939,105.879036 
	C161.660675,106.225502 163.192886,106.852882 164.732712,106.872078 
	C173.614731,106.982857 182.499008,107.004692 191.381409,106.927185 
	C193.612350,106.907722 195.839157,106.413345 198.731903,105.971176 
	C200.582504,104.331230 202.433105,102.691292 204.617874,100.883865 
	C204.826416,100.731125 204.970734,100.531876 205.570312,99.889709 
	C206.466080,98.940628 207.361832,97.991539 208.578934,96.898224 
	C208.782425,96.760612 208.918549,96.573883 209.488861,95.937843 
	C209.768921,95.615013 210.048996,95.292191 210.706680,94.551331 
	C210.761719,93.997406 210.816757,93.443481 210.959305,91.970840 
	C210.947388,74.982506 210.935471,57.994175 210.996933,40.161819 
M80.270645,27.318146 
	C79.880035,26.843046 79.489418,26.367947 78.572601,25.378788 
	C76.432823,24.603859 74.316376,23.247526 72.148987,23.160540 
	C64.996475,22.873472 57.821030,22.905880 50.664837,23.137913 
	C48.850956,23.196728 46.726776,24.050262 45.354519,25.240908 
	C42.353050,27.845154 39.742344,30.899767 36.358223,34.294487 
	C35.928493,35.844814 35.133068,37.393276 35.125130,38.945759 
	C35.037590,56.057976 35.021591,73.171219 35.157738,90.282822 
	C35.170502,91.887169 36.352684,93.482216 37.291412,95.669891 
	C40.460079,98.787315 43.628742,101.904739 47.324516,105.632957 
	C48.190868,106.055084 49.052891,106.832916 49.924255,106.843544 
	C57.479286,106.935623 65.037102,106.947418 72.590622,106.802567 
	C73.411926,106.786819 74.211365,105.629791 75.602440,104.680511 
	C79.075386,101.489708 82.548340,98.298912 86.808914,94.842690 
	C87.136742,89.434349 87.534096,84.027779 87.671379,78.614609 
	C87.683441,78.138885 85.992348,77.619965 84.243713,77.120453 
	C81.518417,77.421890 78.785431,78.022400 76.069695,77.952484 
	C72.290199,77.855171 70.574120,79.260681 71.018555,83.931389 
	C71.463524,87.701355 70.007568,89.366768 66.013863,89.102646 
	C61.387863,88.796715 56.731644,88.947784 52.073616,88.013878 
	C52.000286,85.638535 51.926956,83.263199 51.889389,80.502838 
	C51.889389,80.502838 51.869701,80.116669 51.951534,79.377983 
	C51.927570,78.883789 51.903606,78.389587 51.940510,76.975021 
	C51.917202,67.026665 51.893890,57.078312 51.973110,46.287159 
	C51.941074,45.157707 51.909039,44.028259 51.946671,42.192924 
	C51.999466,41.485188 52.052261,40.777454 53.027641,40.023956 
	C56.521595,40.008198 60.015530,39.985203 63.509502,39.978184 
	C70.990829,39.963146 71.161049,39.971077 70.961700,47.423775 
	C70.868401,50.912067 71.971832,52.289398 75.477768,52.036842 
	C78.955681,51.786304 82.456619,51.855446 86.711624,51.624676 
	C87.006111,47.686611 86.935524,43.678333 87.676430,39.826130 
	C88.943924,33.236015 84.764343,30.490599 80.066292,27.937393 
	C80.066292,27.937393 80.126755,27.934792 80.270645,27.318146 
M512.967834,66.040131 
	C512.967834,66.040131 513.082153,66.038284 513.093506,65.306259 
	C514.366821,62.528725 516.472229,59.829132 516.741211,56.957523 
	C517.311707,50.867077 517.055542,44.682514 516.844421,38.546650 
	C516.787964,36.906666 515.670288,35.303192 514.714355,33.130249 
	C508.904022,25.096319 501.329773,21.652824 491.242065,22.925097 
	C485.217468,23.684923 479.015869,22.954462 472.899139,23.107773 
	C469.976990,23.181019 467.067261,23.752060 464.093475,24.506027 
	C464.093475,24.506027 464.104156,24.918449 464.034760,25.636648 
	C464.055237,26.116722 464.075684,26.596796 464.029327,27.999910 
	C464.049744,34.305550 464.070190,40.611191 464.000061,47.859715 
	C464.031555,53.598003 464.063049,59.336288 464.029449,65.942459 
	C464.054932,68.262543 464.080383,70.582634 464.016357,73.848671 
	C464.072479,84.254189 464.128571,94.659698 464.575806,105.726562 
	C468.106628,106.152023 471.633057,106.619629 475.169464,106.991997 
	C479.366974,107.433960 481.223511,105.730301 481.063416,101.280357 
	C480.806030,94.126602 481.165924,86.951569 480.950806,79.794975 
	C480.837402,76.022095 482.294891,74.799484 485.923767,74.948784 
	C490.242645,75.126472 494.579773,74.861450 499.387787,75.397194 
	C499.655762,76.655540 499.923767,77.913887 500.126068,80.081825 
	C500.139252,85.661003 500.152405,91.240173 500.038940,97.731674 
	C500.083130,100.178566 500.127319,102.625450 500.547028,105.749557 
	C504.062134,106.162521 507.568970,106.798912 511.094513,106.929108 
	C515.062561,107.075645 517.121643,105.162437 517.032471,100.852249 
	C516.853882,92.211914 517.112732,83.561775 516.886292,74.923683 
	C516.824585,72.569908 515.676941,70.244606 514.994568,67.993729 
	C514.994568,67.993729 515.082031,68.026909 514.852783,67.437210 
	C514.223816,66.933411 513.594910,66.429611 512.967834,66.040131 
M258.322540,139.687210 
	C259.424988,140.383881 260.568909,141.023544 261.620941,141.789505 
	C263.613708,143.240402 265.553772,144.763779 267.515717,146.257050 
	C265.287323,147.277435 263.052429,148.284164 260.840240,149.338562 
	C260.609375,149.448608 260.513062,149.841003 259.525146,151.467682 
	C262.705566,151.652283 265.510864,152.586899 267.516815,151.704391 
	C269.351746,150.897156 271.487274,148.048553 271.368256,146.239075 
	C271.230652,144.146713 269.048096,141.897064 267.241638,140.291489 
	C265.566071,138.802307 263.216187,138.071884 261.157166,136.235703 
	C263.877380,135.225021 266.597565,134.214340 269.830780,133.013046 
	C268.697845,129.860489 265.857178,128.731064 262.417206,129.466232 
	C258.051025,130.399338 256.423126,134.288437 258.322540,139.687210 
M305.226624,135.776169 
	C305.460693,140.901611 305.694763,146.027039 306.611755,151.628052 
	C310.621429,151.864166 314.724670,152.853638 318.474243,150.368652 
	C317.443878,149.526306 316.384399,148.990723 315.394012,149.097336 
	C310.800446,149.591812 309.637756,147.248016 309.943848,143.182281 
	C310.154053,140.390472 310.278351,137.509598 309.800873,134.780533 
	C309.527924,133.220551 307.972687,131.884933 306.994812,130.448288 
	C306.471069,131.954559 305.947327,133.460815 305.226624,135.776169 
M356.490875,132.756912 
	C356.377228,133.128143 356.263550,133.499374 356.051147,134.818222 
	C356.060059,139.454483 355.976776,144.094376 356.159760,148.723755 
	C356.194122,149.593979 357.290985,150.422226 357.897522,151.269852 
	C358.545441,150.457672 359.483704,149.737427 359.776367,148.812790 
	C360.274017,147.240845 360.365204,145.540253 360.622162,143.925232 
	C365.829315,144.637375 364.149200,152.658203 371.178436,151.347702 
	C369.545135,148.581284 368.172119,146.255707 367.006042,143.247330 
	C371.449768,137.870224 372.008209,134.656311 368.995697,131.796646 
	C366.508423,129.435547 360.221741,129.284363 356.745483,132.000229 
	C356.826172,132.146896 356.906860,132.293564 356.490875,132.756912 
M242.967560,146.112656 
	C242.967560,146.112656 243.088898,146.220261 243.915115,146.102707 
	C247.318970,145.681595 250.161942,146.086685 251.150314,150.175125 
	C251.305328,150.816452 252.840439,151.124130 253.737411,151.586075 
	C254.102020,150.760666 254.959030,149.778625 254.754105,149.134399 
	C252.947983,143.457016 251.050507,137.802307 248.918060,132.241379 
	C248.562668,131.314575 246.983521,130.477371 245.889679,130.362564 
	C245.280121,130.298599 244.219269,131.699432 243.859421,132.632141 
	C242.848587,135.252335 242.095871,137.972122 240.979523,141.282257 
	C239.840561,144.144913 238.701599,147.007584 237.715515,149.486008 
	C234.698776,149.278168 232.148758,149.473434 229.847153,148.808655 
	C228.401962,148.391220 227.329666,146.682709 226.090042,145.553421 
	C227.277435,144.369980 228.295792,142.885818 229.703598,142.094452 
	C230.916550,141.412613 232.573227,141.520142 234.033722,141.278671 
	C234.024948,140.741547 234.016174,140.204407 234.007401,139.667282 
	C231.701065,139.438766 229.394745,139.210236 227.038162,138.151810 
	C226.521515,130.927673 233.420212,135.886841 236.401535,131.796616 
	C234.419785,131.117432 232.743011,129.961395 231.236954,130.152283 
	C228.431732,130.507843 224.310654,127.715843 223.055817,133.869461 
	C223.016113,135.699982 222.899994,137.532562 222.948807,139.360718 
	C223.328400,153.575897 220.264648,151.978836 236.126038,152.071396 
	C239.821884,152.092941 241.812241,150.813873 242.512207,146.880020 
	C242.698822,146.582901 242.885452,146.285782 242.967560,146.112656 
M338.899628,142.601746 
	C337.934326,145.389740 336.969025,148.177750 336.003723,150.965744 
	C336.665405,151.281891 337.327118,151.598038 337.988800,151.914169 
	C339.032013,149.980606 340.075226,148.047043 341.946686,146.067566 
	C347.785736,143.191071 348.224213,152.296829 354.003357,151.556900 
	C351.703339,144.791168 349.785461,138.507355 347.401947,132.405457 
	C346.185425,129.291214 343.417664,129.333191 342.041351,132.487854 
	C340.737366,135.476746 340.169586,138.786835 338.899628,142.601746 
M262.987183,37.251656 
	C263.365295,34.805790 264.066406,32.356937 264.043884,29.914772 
	C264.012115,26.476034 263.337708,23.124369 258.697021,23.132833 
	C247.232376,23.153746 235.767685,23.168747 224.303085,23.206057 
	C221.245758,23.216005 219.909241,24.679716 219.927780,27.853279 
	C220.078110,53.604439 220.132660,79.356155 220.631775,105.744324 
	C221.495804,106.158737 222.357330,106.927971 223.224258,106.934128 
	C235.454132,107.021057 247.685135,106.954491 259.914917,107.048141 
	C262.912598,107.071098 263.003265,105.336586 262.919617,102.405800 
	C262.889191,101.883141 262.858765,101.360474 262.841461,100.514877 
	C262.841461,100.514877 262.811127,100.193108 262.932373,99.269691 
	C262.899414,96.490311 262.866425,93.710930 262.641815,90.166229 
	C260.951019,89.776161 259.267090,89.087479 257.568237,89.048470 
	C250.742630,88.891747 243.912399,88.936111 237.039795,87.985374 
	C237.036942,84.506912 237.097183,81.026909 237.012421,77.550446 
	C236.936798,74.449524 238.270203,72.966873 241.436798,73.004486 
	C245.410950,73.051697 249.419571,73.220627 253.346222,72.762268 
	C254.923019,72.578201 257.242523,71.148476 257.652893,69.805588 
	C260.474701,60.571823 257.775818,57.010036 248.440231,57.001278 
	C248.108917,57.000969 247.777618,57.001247 247.446304,57.000988 
	C237.048050,56.992809 237.051773,56.992783 236.987000,46.350826 
	C236.977936,44.860672 236.911041,43.370872 237.126312,41.088337 
	C238.631073,40.727119 240.130722,40.082603 241.641525,40.055237 
	C247.266602,39.953331 252.900116,40.187965 258.519440,39.987648 
	C259.979858,39.935589 261.400360,38.762470 262.987183,37.251656 
M328.502594,151.958191 
	C330.353882,151.720840 332.205139,151.483475 334.516144,151.187164 
	C331.870941,146.929672 325.592285,151.998657 325.099609,145.671265 
	C324.646973,139.857742 330.781769,143.556061 332.921234,140.020096 
	C331.081177,139.618317 329.661774,139.522949 328.441345,138.980255 
	C327.272705,138.460602 326.310730,137.476242 325.257904,136.696136 
	C326.371796,135.814636 327.391479,134.757980 328.623260,134.095764 
	C330.181061,133.258301 331.911469,132.741943 333.567444,132.087097 
	C331.796936,131.377472 330.053894,130.582596 328.242706,129.999237 
	C327.493103,129.757782 326.589691,130.046097 325.769714,129.961792 
	C322.080048,129.582474 320.632568,131.240692 320.961395,134.876465 
	C321.461548,140.405975 321.816132,145.948624 322.248474,151.697906 
	C324.395233,151.795395 326.027649,151.869522 328.502594,151.958191 
M297.219391,151.939697 
	C298.888123,151.790512 300.556824,151.641327 302.225555,151.492142 
	C302.272247,150.973648 302.318939,150.455154 302.365631,149.936661 
	C300.177490,149.400711 297.989319,148.864761 295.190674,148.179276 
	C297.143097,145.529099 298.967316,143.425903 300.360077,141.067871 
	C302.097626,138.126160 302.173065,134.957397 299.658478,132.383865 
	C297.240051,129.908752 294.185394,129.114059 291.071533,131.055313 
	C290.045898,131.694717 289.534790,133.159378 288.788391,134.246658 
	C289.974976,134.314102 291.226288,134.657883 292.336151,134.397873 
	C295.845764,133.575638 297.597565,134.968216 296.782745,138.527954 
	C296.397369,140.211624 295.320923,141.842133 294.224792,143.234772 
	C292.336182,145.634186 290.187347,147.828812 287.033051,151.355759 
	C291.034515,151.614944 293.693542,151.787170 297.219391,151.939697 
M281.875793,148.969116 
	C283.445709,142.837234 285.015625,136.705338 286.585510,130.573441 
	C286.121918,130.327850 285.658325,130.082275 285.194702,129.836685 
	C283.421082,132.592758 281.647461,135.348846 279.829224,138.174271 
	C276.843292,135.909546 277.915619,130.188721 272.527771,130.495407 
	C272.420166,131.345856 272.190643,131.877167 272.325256,132.289642 
	C274.242828,138.165482 276.081573,144.072617 278.223633,149.867096 
	C279.162170,152.405975 280.661682,152.258408 281.875793,148.969116 
M391.017365,137.689377 
	C390.416534,135.188934 392.467834,131.600677 387.433105,130.167389 
	C387.142181,134.728348 386.875610,138.907913 386.596405,143.285553 
	C384.498810,141.495773 382.940308,140.165985 381.381836,138.836182 
	C380.989777,139.166153 380.597717,139.496109 380.205658,139.826080 
	C381.950073,143.072510 383.552612,146.408752 385.519531,149.514267 
	C386.166107,150.535110 387.756348,150.958267 388.915100,151.654739 
	C389.598755,150.463959 390.755615,149.317810 390.872986,148.073608 
	C391.167572,144.950333 390.992096,141.782730 391.017365,137.689377 
M377.878967,147.174286 
	C378.339539,143.956360 376.728790,140.355042 380.282684,137.636414 
	C380.951477,137.124802 379.838654,133.762970 378.975433,131.996124 
	C378.562225,131.150421 376.810364,130.958771 375.664825,130.470886 
	C375.126434,131.910416 374.188293,133.332428 374.124298,134.792740 
	C373.929382,139.241806 373.980194,143.709015 374.145599,148.161362 
	C374.187714,149.295288 375.009735,150.400253 375.473389,151.518524 
	C376.269501,150.354630 377.065613,149.190735 377.878967,147.174286 
z"/>
<path fill="#333333" opacity="1.000000" stroke="none" 
	d="
M394.173370,49.143311 
	C394.146973,48.648293 394.120575,48.153278 394.360474,47.013794 
	C394.782623,42.938530 394.938507,39.507732 395.094421,36.076935 
	C395.071259,35.292217 395.048065,34.507496 395.312805,33.064514 
	C395.742340,28.943762 395.883942,25.481270 396.025574,22.018780 
	C396.026703,21.550808 396.027863,21.082836 396.429810,20.152908 
	C398.308990,19.443153 399.787384,19.195356 401.265778,18.947563 
	C404.422119,23.039877 407.578491,27.132191 410.940979,31.893528 
	C413.137909,35.346661 415.128723,38.130768 417.119507,40.914875 
	C417.119507,40.914875 417.078796,40.964478 417.223053,41.190369 
	C417.938568,41.946545 418.509796,42.476833 419.081055,43.007118 
	C419.081055,43.007114 419.009094,42.991482 419.077087,43.302898 
	C420.460510,45.074421 421.776001,46.534527 423.091461,47.994637 
	C423.091461,47.994637 423.013336,47.982536 423.072327,48.280319 
	C423.783112,49.715092 424.434937,50.852085 425.086731,51.989075 
	C425.086731,51.989075 425.016876,51.989361 425.209320,52.195198 
	C426.031891,52.920418 426.662048,53.439796 427.292175,53.959175 
	C427.537750,54.031124 427.736053,54.170368 428.062439,54.863464 
	C428.884430,56.225315 429.531128,57.100605 430.177795,57.975891 
	C431.747131,60.407818 433.316498,62.839745 435.099670,65.892670 
	C436.238068,67.340652 437.162598,68.167633 438.087128,68.994614 
	C438.087128,68.994606 438.006042,69.021362 438.167480,69.166191 
	C438.572937,69.547508 438.816986,69.784004 439.061005,70.020493 
	C439.061005,70.020500 438.992889,69.982674 439.063049,70.283569 
	C439.784882,71.710991 440.436523,72.837517 441.088196,73.964035 
	C441.088196,73.964027 441.032654,73.984100 441.193268,74.144554 
	C441.575439,74.547386 441.815399,74.769920 442.073730,74.972610 
	C442.073730,74.972610 442.014313,74.977249 442.191162,75.192696 
	C442.937164,75.940857 443.506317,76.473579 444.075439,77.006302 
	C444.075439,77.006294 444.005066,76.983681 444.084656,77.283005 
	C445.146393,78.717499 446.128571,79.852676 447.110748,80.987854 
	C447.110748,80.987854 447.032074,81.011604 447.126190,81.242073 
	C447.507111,81.974464 447.793884,82.476379 448.080658,82.978302 
	C448.080658,82.978310 448.020599,82.971405 448.194397,83.194145 
	C448.941589,83.947556 449.514984,84.478218 450.088348,85.008896 
	C450.088348,85.008896 450.005585,84.989594 450.087982,85.285065 
	C451.188690,86.706779 452.207001,87.833023 453.225281,88.959274 
	C453.469208,89.039627 453.669464,89.181610 454.060669,89.742989 
	C454.474121,90.369522 454.659302,90.633842 454.850861,90.893692 
	C453.735260,92.288765 452.896210,94.356880 451.451324,94.950577 
	C447.394897,96.617332 443.088684,97.676262 438.340027,99.138290 
	C437.569122,99.487137 437.339630,99.673256 437.110657,99.860016 
	C436.665741,99.925430 436.220856,99.990852 435.121155,99.984070 
	C422.896606,103.608955 411.320404,107.286415 399.773163,111.052628 
	C399.092255,111.274696 398.644409,112.211266 398.088104,112.815338 
	C396.664581,113.234528 395.262756,113.763893 393.812866,114.049034 
	C391.126740,114.577293 389.726898,113.599548 389.880981,110.633163 
	C390.344971,101.698929 390.524506,92.746124 391.167419,83.825958 
	C391.963257,72.784424 393.112610,61.768368 394.119720,50.200554 
	C394.084869,49.482128 394.099274,49.309963 394.173370,49.143311 
z"/>
<path fill="#333333" opacity="1.000000" stroke="none" 
	d="
M500.191772,79.172241 
	C499.923767,77.913887 499.655762,76.655540 498.864136,74.873734 
	C494.278076,73.931168 490.222229,73.425880 486.151489,73.116188 
	C481.703156,72.777779 479.867645,75.027306 479.983917,79.410309 
	C480.128906,84.877243 480.007629,90.351265 480.000061,95.822227 
	C479.988037,104.497116 479.591309,104.901199 471.146545,104.959343 
	C468.825775,104.975319 466.505310,105.028893 464.184692,105.065216 
	C464.128571,94.659698 464.072479,84.254189 464.176453,73.030640 
	C464.255859,69.833260 464.175201,67.453918 464.094543,65.074577 
	C464.063049,59.336288 464.031555,53.598003 464.170105,47.003639 
	C464.258820,39.790668 464.177490,33.433769 464.096130,27.076868 
	C464.075684,26.596796 464.055237,26.116722 464.069214,25.174938 
	C464.110565,24.507246 464.126678,24.302048 464.151917,24.097630 
	C467.067261,23.752060 469.976990,23.181019 472.899139,23.107773 
	C479.015869,22.954462 485.217468,23.684923 491.242065,22.925097 
	C501.329773,21.652824 508.904022,25.096319 514.849792,33.895603 
	C514.973572,36.658081 515.113831,38.669830 514.923279,40.649734 
	C514.189819,48.270470 517.119812,56.338837 512.152100,63.491707 
	C511.855255,63.919086 512.744690,65.170380 513.082153,66.038284 
	C513.082153,66.038284 512.967834,66.040131 513.156006,66.214294 
	C513.923462,66.934608 514.502747,67.480751 515.082031,68.026901 
	C515.082031,68.026909 514.994568,67.993729 514.997864,68.425652 
	C514.977417,76.338722 514.942871,83.819855 514.932251,91.301018 
	C514.911133,106.201981 515.923706,104.951561 501.666840,105.021645 
	C501.168335,105.024094 500.669922,105.054802 500.171478,105.072342 
	C500.127319,102.625450 500.083130,100.178566 500.198792,96.892288 
	C500.303009,90.426010 500.247375,84.799126 500.191772,79.172241 
M480.154297,41.717331 
	C480.486847,47.091602 480.819397,52.465874 482.065216,57.883739 
	C486.741638,57.963573 491.418030,58.043404 496.291870,58.084694 
	C496.495239,58.068798 496.693970,58.091255 497.643829,57.903469 
	C498.399841,56.437263 499.710022,55.006832 499.807404,53.498112 
	C500.093597,49.064873 499.898132,44.600544 499.839020,39.576530 
	C496.861053,37.574471 483.829254,37.147709 481.157776,39.049259 
	C480.688354,39.383377 480.537872,40.165581 480.154297,41.717331 
z"/>
<path fill="#333333" opacity="1.000000" stroke="none" 
	d="
M210.871796,92.889557 
	C210.816757,93.443481 210.761719,93.997406 210.305176,94.999977 
	C209.598221,95.745094 209.292770,96.041573 208.987305,96.338043 
	C208.918549,96.573883 208.782425,96.760612 208.092865,97.088943 
	C206.754807,98.281815 205.902832,99.283958 205.050858,100.286110 
	C204.970734,100.531876 204.826416,100.731125 204.091003,101.016998 
	C201.705688,102.462341 199.847260,103.774559 197.521332,105.063377 
	C184.671814,105.059158 172.289780,105.078346 159.907761,105.097534 
	C159.907761,105.097534 159.983200,105.006409 159.967773,104.578171 
	C159.912766,77.241158 159.873184,50.332382 159.833603,23.423611 
	C171.765610,23.316395 183.698456,23.106163 195.628784,23.204012 
	C197.602631,23.220201 199.565414,24.583761 201.849579,25.943146 
	C203.524292,28.597113 205.054092,30.541435 206.197800,32.691170 
	C207.622452,35.368969 208.728592,38.216225 209.973297,41.459572 
	C209.978165,56.306805 209.938522,70.685043 210.025711,85.062500 
	C210.041534,87.673134 210.576477,90.280617 210.871796,92.889557 
M194.579620,39.310688 
	C187.982925,39.172497 181.386246,39.034306 174.520752,39.686069 
	C174.376251,55.288025 174.170761,70.890083 174.197281,86.491745 
	C174.199524,87.810432 175.775192,90.272987 176.585327,90.258598 
	C182.047211,90.161568 187.499756,89.539284 193.438583,88.425377 
	C193.674713,85.906212 193.910843,83.387054 194.363510,80.097130 
	C194.291748,68.775841 194.219971,57.454552 194.049179,45.318569 
	C194.079895,44.500057 194.110611,43.681541 194.354675,42.299568 
	C194.561844,41.524403 194.769012,40.749233 194.579620,39.310688 
z"/>
<path fill="#333333" opacity="1.000000" stroke="none" 
	d="
M105.941666,25.710653 
	C106.368324,25.220772 106.794998,24.730894 107.644180,23.968460 
	C108.349800,23.503521 108.632896,23.311138 108.915993,23.118757 
	C111.155182,22.977800 113.394600,22.719166 115.633499,22.723597 
	C118.952667,22.730167 122.403610,23.567677 125.566299,22.919207 
	C136.170059,20.745045 142.278625,26.798275 147.617615,34.339012 
	C148.575989,35.692623 148.940018,37.727795 148.949860,39.451866 
	C149.046585,56.419094 149.121826,73.388641 148.883255,90.353043 
	C148.850128,92.707550 147.500366,95.356277 146.017105,97.302528 
	C143.923279,100.049889 141.136703,102.269295 137.875885,104.882568 
	C128.043625,105.036819 118.981773,105.022903 109.919930,105.008987 
	C101.944778,100.615479 95.786911,95.117249 96.953598,84.788948 
	C97.288368,81.825302 97.050415,78.796951 97.246460,74.945206 
	C97.324394,61.434589 97.230934,48.777042 97.137482,36.119492 
	C97.117691,35.929451 97.097900,35.739410 97.370064,35.154137 
	C98.436836,33.806934 99.211639,32.854954 99.986450,31.902979 
	C99.986450,31.902981 99.983337,31.983183 100.270966,31.898205 
	C101.695862,30.848759 102.833122,29.884289 103.970375,28.919815 
	C103.970375,28.919815 103.987350,28.982555 104.199348,28.766272 
	C104.921448,27.603542 105.431557,26.657099 105.941666,25.710653 
M113.080475,78.861465 
	C112.908600,91.175621 112.909241,91.212845 125.066719,91.004532 
	C127.341431,90.965546 129.608749,90.495392 132.488968,89.715874 
	C132.989960,87.520172 133.889404,85.330849 133.924606,83.127708 
	C134.099289,72.197426 134.087036,61.263416 134.062576,50.330894 
	C134.032669,36.961651 135.218201,37.777355 121.806503,38.038631 
	C118.890877,38.095432 115.997467,39.292568 113.088036,40.907631 
	C113.098900,53.248493 113.109772,65.589355 113.080475,78.861465 
z"/>
<path fill="#333333" opacity="1.000000" stroke="none" 
	d="
M536.854553,105.020241 
	C533.787659,102.051170 530.559143,99.225281 527.736816,96.039551 
	C526.671570,94.837090 526.142944,92.820465 526.067993,91.143753 
	C525.855103,86.381363 526.002319,81.602867 526.178833,75.989037 
	C526.265869,71.792885 526.181824,68.438416 526.097778,65.083946 
	C526.069580,63.963825 526.041443,62.843708 526.123230,61.075459 
	C526.195435,59.651188 526.157654,58.875050 526.119873,58.098907 
	C526.114563,51.022598 526.109192,43.946285 526.442749,36.234337 
	C527.510498,34.355637 528.239441,33.112579 528.968323,31.869518 
	C529.084106,31.603306 529.253723,31.377541 529.964966,30.961683 
	C531.295288,29.789955 532.137817,28.848766 532.980408,27.907579 
	C532.980408,27.907581 532.969543,27.984974 533.241333,27.854950 
	C534.321899,26.736553 535.130737,25.748178 535.939575,24.759802 
	C537.260559,24.209589 538.560852,23.246054 539.906067,23.178583 
	C546.830872,22.831255 553.783203,22.369322 560.691467,22.689894 
	C563.366394,22.814022 566.661804,24.251808 568.426819,26.213692 
	C572.010681,30.197380 578.278687,32.445267 577.907959,39.806717 
	C577.895508,40.513592 577.897705,40.718716 577.889221,40.923885 
	C577.934753,57.414593 578.008972,73.905304 578.010437,90.396011 
	C578.010986,96.349976 573.182556,99.124886 568.932251,102.941986 
	C557.783508,103.790985 547.319031,104.405617 536.854553,105.020241 
M560.056580,38.985481 
	C555.742737,38.951263 551.368958,39.353619 547.130249,38.771904 
	C541.877197,38.050964 540.865723,40.412258 540.940369,44.916126 
	C541.116333,55.532574 540.906311,66.155052 541.039429,76.772751 
	C541.095154,81.219292 541.624756,85.659897 542.721741,90.378250 
	C547.012390,90.565315 551.303406,90.912689 555.593506,90.901413 
	C561.836487,90.885010 562.927917,89.818649 562.964600,83.694206 
	C563.041077,70.936707 563.074524,58.177086 562.891113,45.421696 
	C562.860291,43.277390 561.653076,41.149998 560.056580,38.985481 
z"/>
<path fill="#333333" opacity="1.000000" stroke="none" 
	d="
M288.198914,74.201103 
	C288.141724,74.622620 288.084564,75.044136 287.940063,75.961166 
	C287.868317,76.944572 287.883942,77.432457 287.899567,77.920349 
	C287.920410,78.411194 287.941223,78.902039 287.803711,80.143082 
	C287.464844,88.616684 287.284363,96.340080 286.718597,104.222641 
	C281.556152,104.622025 276.779022,104.862259 271.969116,104.758995 
	C271.669525,103.315308 271.402649,102.215111 271.135773,101.114922 
	C271.096436,97.677544 271.057098,94.240158 271.188171,89.953163 
	C271.568085,87.125114 271.956818,85.146912 271.959320,83.168213 
	C271.984589,63.194565 271.946625,43.220833 271.926422,23.247124 
	C276.677155,23.244473 281.427887,23.241819 286.631104,23.732964 
	C287.057434,28.864250 287.006775,33.501766 287.011688,38.139221 
	C287.017303,43.439335 287.042236,48.740215 287.185852,54.037312 
	C287.193878,54.333179 288.359833,54.597649 288.986847,54.876732 
	C290.743439,51.411274 292.500000,47.945812 294.658936,43.989159 
	C295.377563,42.975101 295.693817,42.452225 296.010101,41.929352 
	C296.010101,41.929356 296.000031,42.016048 296.252502,41.859428 
	C297.307068,40.444256 298.109100,39.185699 298.911163,37.927147 
	C298.911163,37.927147 298.959808,37.985352 299.205505,37.776321 
	C302.427612,33.437477 306.705170,29.957680 306.188049,24.082516 
	C311.522369,23.772482 316.856720,23.462448 322.650085,23.577976 
	C323.122559,24.710482 323.135986,25.417427 323.149414,26.124371 
	C323.149414,26.124371 323.091522,26.108086 322.828735,26.271185 
	C320.384949,30.690769 318.203918,34.947254 316.022888,39.203739 
	C316.022888,39.203739 315.981720,39.676720 315.784668,40.073364 
	C315.422302,40.707897 315.223206,40.913013 314.990326,41.085350 
	C311.137451,47.733276 307.268860,54.372185 303.449097,61.039070 
	C302.891052,62.013020 302.565704,63.120296 302.056488,64.824890 
	C301.477570,68.900955 303.206512,70.848289 306.232849,71.941208 
	C306.502167,72.402458 306.771484,72.863701 307.146179,73.725067 
	C307.481995,74.411171 307.712341,74.697151 307.942688,74.983139 
	C307.942688,74.983139 308.033630,75.345383 308.146057,75.847992 
	C308.884521,77.224388 309.510529,78.098167 310.136536,78.971939 
	C311.728180,81.674965 313.319794,84.377998 315.105103,87.604675 
	C315.488251,88.392387 315.681976,88.653313 315.879944,88.911102 
	C315.879944,88.911102 315.986786,89.357910 316.049377,89.950874 
	C317.111298,92.029350 318.110626,93.514862 319.109924,95.000374 
	C319.109924,95.000374 319.025024,94.992928 319.057587,95.320007 
	C320.043671,97.765541 320.997223,99.884003 322.132751,102.187271 
	C322.599731,102.565796 322.884735,102.759499 323.169708,102.953209 
	C323.169708,102.953209 323.162201,102.894157 322.909729,103.175110 
	C318.112854,103.990395 313.568512,104.524719 308.782166,104.846008 
	C307.329834,103.434151 306.119507,102.235336 304.909149,101.036530 
	C304.909149,101.036522 304.974274,101.019669 304.765076,100.896927 
	C304.083405,100.536469 303.610901,100.298759 303.138428,100.061050 
	C303.138428,100.061058 303.007507,99.674728 302.946411,99.083145 
	C301.503387,96.342789 300.121429,94.194031 298.739471,92.045273 
	C298.487610,91.631325 298.235748,91.217377 297.878021,90.231216 
	C297.154297,88.764351 296.536438,87.869713 295.918579,86.975075 
	C295.918579,86.975075 296.016113,86.981522 295.882385,86.762421 
	C295.450317,86.027100 295.151978,85.510895 294.853668,84.994690 
	C292.928314,81.617851 291.002991,78.241013 288.954224,74.377197 
	C288.616852,73.717476 288.402893,73.544724 288.188965,73.371971 
	C288.192291,73.648346 288.195587,73.924728 288.198914,74.201103 
z"/>
<path fill="#333333" opacity="1.000000" stroke="none" 
	d="
M353.969666,97.997910 
	C350.494385,96.396492 347.019104,94.795074 343.053589,92.748627 
	C340.009552,90.895241 337.455780,89.486893 334.901978,88.078537 
	C334.901978,88.078545 334.956848,88.102791 334.941162,87.683990 
	C334.938477,86.146950 334.951508,85.028709 334.964539,83.910477 
	C334.964539,83.910477 334.998779,83.981544 335.089386,83.912560 
	C335.421906,83.531990 335.663818,83.220413 335.905701,82.908829 
	C339.688629,78.043472 343.471558,73.178123 347.779785,67.967896 
	C348.857269,67.059052 349.409454,66.495064 349.961670,65.931091 
	C349.961670,65.931091 349.993896,65.981438 350.108948,65.718102 
	C350.466431,64.896751 350.708832,64.338737 350.951263,63.780724 
	C351.243744,63.332836 351.536224,62.884953 352.301056,62.127453 
	C354.164978,60.172375 355.556580,58.526913 356.948181,56.881447 
	C356.948151,56.881439 356.923645,56.977982 357.169312,56.861694 
	C358.239014,55.468430 359.063019,54.191452 359.887024,52.914467 
	C362.325043,49.720016 364.763031,46.525574 367.813965,43.051762 
	C371.262482,39.485767 374.098114,36.199146 376.933716,32.912525 
	C376.933716,32.912525 376.972687,32.969109 377.262390,32.821232 
	C378.689789,30.724968 379.827454,28.776579 380.965118,26.828201 
	C383.067200,24.310774 385.169250,21.793335 387.802460,19.398239 
	C388.747528,24.175705 389.191437,28.828423 389.565033,33.486778 
	C389.823822,36.713493 389.985748,39.947979 390.190918,43.178993 
	C390.133057,43.906021 390.075165,44.633045 389.760071,46.031349 
	C388.987823,55.123482 388.472778,63.544338 387.957764,71.965195 
	C387.316803,84.789284 386.728912,97.616661 385.933960,110.431198 
	C385.870453,111.455086 384.377258,112.390297 382.973511,113.068077 
	C381.571594,112.518341 380.744629,112.267250 379.917694,112.016151 
	C379.917694,112.016151 380.001251,111.994667 379.788147,111.794632 
	C378.621918,111.079811 377.668793,110.565018 376.715637,110.050217 
	C376.715637,110.050217 376.327606,110.030846 375.978210,109.819199 
	C375.405457,109.394493 375.177704,109.186256 374.945526,108.982841 
	C374.945526,108.982841 375.022705,109.000946 374.828674,108.758850 
	C368.366241,105.354607 362.097870,102.192459 355.829468,99.030319 
	C355.829468,99.030319 355.337982,98.957977 354.946716,98.758560 
	C354.346100,98.386818 354.150818,98.199738 353.969666,97.997910 
M362.478882,52.486538 
	C362.478882,52.486538 362.464539,52.505093 362.478882,52.486538 
z"/>
<path fill="#333333" opacity="1.000000" stroke="none" 
	d="
M262.833466,90.931549 
	C262.866425,93.710930 262.899414,96.490311 262.948914,99.793442 
	C263.058960,100.528603 263.013245,100.702141 262.828339,100.837814 
	C262.858765,101.360474 262.889191,101.883141 262.579956,103.020432 
	C259.839569,104.071037 257.444214,104.847214 255.037231,104.885216 
	C243.432022,105.068443 231.823654,105.052795 220.216415,105.107697 
	C220.132660,79.356155 220.078110,53.604439 219.927780,27.853279 
	C219.909241,24.679716 221.245758,23.216005 224.303085,23.206057 
	C235.767685,23.168747 247.232376,23.153746 258.697021,23.132833 
	C263.337708,23.124369 264.012115,26.476034 264.043884,29.914772 
	C264.066406,32.356937 263.365295,34.805790 262.456177,37.640049 
	C254.790527,38.009224 247.655243,37.929157 240.521652,38.005268 
	C238.167770,38.030384 235.408035,38.075878 236.870895,41.880909 
	C236.911041,43.370872 236.977936,44.860672 236.987000,46.350826 
	C237.051773,56.992783 237.048050,56.992809 247.446304,57.000988 
	C247.777618,57.001247 248.108917,57.000969 248.440231,57.001278 
	C257.775818,57.010036 260.474701,60.571823 257.652893,69.805588 
	C257.242523,71.148476 254.923019,72.578201 253.346222,72.762268 
	C249.419571,73.220627 245.410950,73.051697 241.436798,73.004486 
	C238.270203,72.966873 236.936798,74.449524 237.012421,77.550446 
	C237.097183,81.026909 237.036942,84.506912 237.124725,88.707535 
	C238.826019,89.945961 240.433395,90.871704 242.060287,90.907364 
	C248.981537,91.059097 255.908554,90.947197 262.833466,90.931549 
z"/>
<path fill="#333333" opacity="1.000000" stroke="none" 
	d="
M46.797405,105.022163 
	C43.628742,101.904739 40.460079,98.787315 37.134785,94.901581 
	C36.976116,74.012314 36.974075,53.891369 36.972031,33.770424 
	C39.742344,30.899767 42.353050,27.845154 45.354519,25.240908 
	C46.726776,24.050262 48.850956,23.196728 50.664837,23.137913 
	C57.821030,22.905880 64.996475,22.873472 72.148987,23.160540 
	C74.316376,23.247526 76.432823,24.603859 78.820038,25.842646 
	C79.420570,26.849266 79.773659,27.392031 80.126755,27.934792 
	C80.126755,27.934792 80.066292,27.937393 80.181770,28.239529 
	C84.747574,33.610527 87.163338,39.315151 86.063263,46.224354 
	C85.805634,47.842426 86.003197,49.532970 85.531685,51.142193 
	C83.746536,51.037579 82.421570,50.958626 81.095474,50.927959 
	C72.692848,50.733650 72.602425,50.744251 71.931541,42.185043 
	C71.692749,39.138500 70.291389,38.259388 67.441071,38.339703 
	C63.176132,38.459873 58.899147,38.158310 54.634651,38.284664 
	C53.480209,38.318867 52.352287,39.248127 51.227516,40.090996 
	C51.454227,41.243225 51.665615,42.071014 51.877003,42.898808 
	C51.909039,44.028259 51.941074,45.157707 51.806023,47.092022 
	C51.719173,57.896389 51.799408,67.895889 51.879646,77.895393 
	C51.903606,78.389587 51.927570,78.883789 51.932774,79.842369 
	C51.934818,80.505013 51.914688,80.698715 51.853622,80.887856 
	C51.926956,83.263199 52.000286,85.638535 52.155685,88.712601 
	C56.690823,89.931435 61.137543,90.804916 65.598526,90.885147 
	C71.619675,90.993431 72.623360,89.304642 71.113411,83.091766 
	C70.574120,79.260681 72.290199,77.855171 76.069695,77.952484 
	C78.785431,78.022400 81.518417,77.421890 84.806992,77.395584 
	C85.587280,83.483177 85.804283,89.295639 86.021286,95.108109 
	C82.548340,98.298912 79.075386,101.489708 74.841644,104.845680 
	C64.986374,105.014618 55.891888,105.018394 46.797405,105.022163 
z"/>
<path fill="#3A3C3C" opacity="1.000000" stroke="none" 
	d="
M328.081329,151.950928 
	C326.027649,151.869522 324.395233,151.795395 322.248474,151.697906 
	C321.816132,145.948624 321.461548,140.405975 320.961395,134.876465 
	C320.632568,131.240692 322.080048,129.582474 325.769714,129.961792 
	C326.589691,130.046097 327.493103,129.757782 328.242706,129.999237 
	C330.053894,130.582596 331.796936,131.377472 333.567444,132.087097 
	C331.911469,132.741943 330.181061,133.258301 328.623260,134.095764 
	C327.391479,134.757980 326.371796,135.814636 325.257904,136.696136 
	C326.310730,137.476242 327.272705,138.460602 328.441345,138.980255 
	C329.661774,139.522949 331.081177,139.618317 332.921234,140.020096 
	C330.781769,143.556061 324.646973,139.857742 325.099609,145.671265 
	C325.592285,151.998657 331.870941,146.929672 334.516144,151.187164 
	C332.205139,151.483475 330.353882,151.720840 328.081329,151.950928 
z"/>
<path fill="#414242" opacity="1.000000" stroke="none" 
	d="
M339.278046,141.955673 
	C340.169586,138.786835 340.737366,135.476746 342.041351,132.487854 
	C343.417664,129.333191 346.185425,129.291214 347.401947,132.405457 
	C349.785461,138.507355 351.703339,144.791168 354.003357,151.556900 
	C348.224213,152.296829 347.785736,143.191071 341.435486,145.845490 
	C340.375549,144.400848 339.826782,143.178268 339.278046,141.955673 
z"/>
<path fill="#4F4F4F" opacity="1.000000" stroke="none" 
	d="
M159.471313,23.502388 
	C159.873184,50.332382 159.912766,77.241158 159.926483,104.623413 
	C159.281540,103.938431 158.126938,102.782143 158.122208,101.621170 
	C158.020370,76.650780 158.034348,51.679852 158.093826,26.709187 
	C158.096313,25.665712 158.755692,24.623802 159.471313,23.502388 
z"/>
<path fill="#3A3C3C" opacity="1.000000" stroke="none" 
	d="
M296.785980,151.949554 
	C293.693542,151.787170 291.034515,151.614944 287.033051,151.355759 
	C290.187347,147.828812 292.336182,145.634186 294.224792,143.234772 
	C295.320923,141.842133 296.397369,140.211624 296.782745,138.527954 
	C297.597565,134.968216 295.845764,133.575638 292.336151,134.397873 
	C291.226288,134.657883 289.974976,134.314102 288.788391,134.246674 
	C289.534790,133.159378 290.045898,131.694717 291.071533,131.055313 
	C294.185394,129.114059 297.240051,129.908752 299.658478,132.383865 
	C302.173065,134.957397 302.097626,138.126160 300.360077,141.067871 
	C298.967316,143.425903 297.143097,145.529099 295.190674,148.179276 
	C297.989319,148.864761 300.177490,149.400711 302.365631,149.936661 
	C302.318939,150.455154 302.272247,150.973648 302.225555,151.492142 
	C300.556824,151.641327 298.888123,151.790512 296.785980,151.949554 
z"/>
<path fill="#414242" opacity="1.000000" stroke="none" 
	d="
M241.241364,140.652634 
	C242.095871,137.972122 242.848587,135.252335 243.859421,132.632141 
	C244.219269,131.699432 245.280121,130.298599 245.889679,130.362564 
	C246.983521,130.477371 248.562668,131.314575 248.918060,132.241379 
	C251.050507,137.802307 252.947983,143.457016 254.754105,149.134399 
	C254.959030,149.778625 254.102020,150.760666 253.737411,151.586075 
	C252.840439,151.124130 251.305328,150.816452 251.150314,150.175125 
	C250.161942,146.086685 247.318970,145.681595 243.453918,145.737213 
	C242.408951,143.798691 241.825165,142.225662 241.241364,140.652634 
M243.965515,139.475433 
	C243.965515,139.475433 243.994354,139.479095 243.965515,139.475433 
z"/>
<path fill="#3A3C3C" opacity="1.000000" stroke="none" 
	d="
M241.110443,140.967438 
	C241.825165,142.225662 242.408951,143.798691 243.040817,145.795990 
	C243.088898,146.220261 242.967560,146.112656 242.837250,146.225220 
	C242.473495,146.580551 242.240067,146.823334 242.006622,147.066132 
	C241.812241,150.813873 239.821884,152.092941 236.126038,152.071396 
	C220.264648,151.978836 223.328400,153.575897 222.948807,139.360718 
	C222.899994,137.532562 223.016113,135.699982 223.282501,133.312881 
	C224.074936,133.227676 224.864822,133.588486 225.162613,134.192062 
	C225.921707,135.730804 226.461105,137.377945 227.088425,138.981720 
	C229.394745,139.210236 231.701065,139.438766 234.007401,139.667282 
	C234.016174,140.204407 234.024948,140.741547 234.033722,141.278671 
	C232.573227,141.520142 230.916550,141.412613 229.703598,142.094452 
	C228.295792,142.885818 227.277435,144.369980 226.090057,145.553436 
	C227.329666,146.682709 228.401962,148.391220 229.847153,148.808655 
	C232.148758,149.473434 234.698776,149.278168 237.715515,149.486008 
	C238.701599,147.007584 239.840561,144.144913 241.110443,140.967438 
z"/>
<path fill="#414242" opacity="1.000000" stroke="none" 
	d="
M281.830994,149.367950 
	C280.661682,152.258408 279.162170,152.405975 278.223633,149.867096 
	C276.081573,144.072617 274.242828,138.165482 272.325256,132.289642 
	C272.190643,131.877167 272.420166,131.345856 272.527771,130.495407 
	C277.915619,130.188721 276.843292,135.909546 279.829224,138.174271 
	C281.647461,135.348846 283.421082,132.592758 285.194702,129.836685 
	C285.658325,130.082275 286.121918,130.327850 286.585510,130.573441 
	C285.015625,136.705338 283.445709,142.837234 281.830994,149.367950 
z"/>
<path fill="#3A3C3C" opacity="1.000000" stroke="none" 
	d="
M391.011230,138.161133 
	C390.992096,141.782730 391.167572,144.950333 390.872986,148.073608 
	C390.755615,149.317810 389.598755,150.463959 388.915100,151.654724 
	C387.756348,150.958267 386.166107,150.535110 385.519531,149.514267 
	C383.552612,146.408752 381.950073,143.072510 380.205658,139.826080 
	C380.597717,139.496109 380.989777,139.166153 381.381836,138.836182 
	C382.940308,140.165985 384.498810,141.495773 386.596405,143.285553 
	C386.875610,138.907913 387.142181,134.728348 387.433105,130.167389 
	C392.467834,131.600677 390.416534,135.188934 391.011230,138.161133 
z"/>
<path fill="#4F4F4F" opacity="1.000000" stroke="none" 
	d="
M36.665127,34.032455 
	C36.974075,53.891369 36.976116,74.012314 36.985031,94.607422 
	C36.352684,93.482216 35.170502,91.887169 35.157738,90.282822 
	C35.021591,73.171219 35.037590,56.057976 35.125130,38.945759 
	C35.133068,37.393276 35.928493,35.844814 36.665127,34.032455 
z"/>
<path fill="#333333" opacity="1.000000" stroke="none" 
	d="
M366.799103,143.930130 
	C368.172119,146.255707 369.545135,148.581284 371.178436,151.347702 
	C364.149200,152.658203 365.829315,144.637375 360.622162,143.925232 
	C360.365204,145.540253 360.274017,147.240845 359.776367,148.812790 
	C359.483704,149.737427 358.545441,150.457672 357.897522,151.269852 
	C357.290985,150.422226 356.194122,149.593979 356.159760,148.723755 
	C355.976776,144.094376 356.060059,139.454483 356.245789,134.109833 
	C356.622803,133.081055 356.805176,132.760635 356.987549,132.440216 
	C356.906860,132.293564 356.826172,132.146896 356.916138,132.117889 
	C357.994507,133.807190 358.902222,135.378845 359.909515,137.307037 
	C361.355194,138.501709 362.701294,139.339828 364.151428,140.463654 
	C365.103333,141.809616 365.951202,142.869873 366.799103,143.930130 
z"/>
<path fill="#3A3C3C" opacity="1.000000" stroke="none" 
	d="
M305.423584,134.967087 
	C305.947327,133.460815 306.471069,131.954559 306.994812,130.448288 
	C307.972687,131.884933 309.527924,133.220551 309.800873,134.780533 
	C310.278351,137.509598 310.154053,140.390472 309.943848,143.182281 
	C309.637756,147.248016 310.800446,149.591812 315.394012,149.097336 
	C316.384399,148.990723 317.443878,149.526306 318.474243,150.368652 
	C314.724670,152.853638 310.621429,151.864166 306.379761,151.052872 
	C305.906403,145.307495 305.665009,140.137283 305.423584,134.967087 
z"/>
<path fill="#3A3C3C" opacity="1.000000" stroke="none" 
	d="
M261.163208,137.007355 
	C263.216187,138.071884 265.566071,138.802307 267.241638,140.291489 
	C269.048096,141.897064 271.230652,144.146713 271.368256,146.239075 
	C271.487274,148.048553 269.351746,150.897156 267.516815,151.704391 
	C265.510864,152.586899 262.705566,151.652283 259.525146,151.467682 
	C260.513062,149.841003 260.609375,149.448608 260.840240,149.338562 
	C263.052429,148.284164 265.287323,147.277435 267.515717,146.257050 
	C265.553772,144.763779 263.613708,143.240402 261.620941,141.789505 
	C260.568909,141.023544 259.424988,140.383881 258.367432,139.175446 
	C259.329315,138.111572 260.246246,137.559464 261.163208,137.007355 
z"/>
<path fill="#444444" opacity="1.000000" stroke="none" 
	d="
M464.380249,105.395889 
	C466.505310,105.028893 468.825775,104.975319 471.146545,104.959343 
	C479.591309,104.901199 479.988037,104.497116 480.000061,95.822227 
	C480.007629,90.351265 480.128906,84.877243 479.983917,79.410309 
	C479.867645,75.027306 481.703156,72.777779 486.151489,73.116188 
	C490.222229,73.425880 494.278076,73.931168 498.624756,74.569252 
	C494.579773,74.861450 490.242645,75.126472 485.923767,74.948784 
	C482.294891,74.799484 480.837402,76.022095 480.950806,79.794975 
	C481.165924,86.951569 480.806030,94.126602 481.063416,101.280357 
	C481.223511,105.730301 479.366974,107.433960 475.169464,106.991997 
	C471.633057,106.619629 468.106628,106.152023 464.380249,105.395889 
z"/>
<path fill="#414242" opacity="1.000000" stroke="none" 
	d="
M377.870361,147.600555 
	C377.065613,149.190735 376.269501,150.354630 375.473389,151.518524 
	C375.009735,150.400253 374.187714,149.295288 374.145599,148.161362 
	C373.980194,143.709015 373.929382,139.241806 374.124298,134.792740 
	C374.188293,133.332428 375.126434,131.910416 375.664795,130.470886 
	C376.810364,130.958771 378.562225,131.150421 378.975433,131.996124 
	C379.838654,133.762970 380.951477,137.124802 380.282684,137.636414 
	C376.728790,140.355042 378.339539,143.956360 377.870361,147.600555 
z"/>
<path fill="#494848" opacity="1.000000" stroke="none" 
	d="
M500.359253,105.410950 
	C500.669922,105.054802 501.168335,105.024094 501.666840,105.021645 
	C515.923706,104.951561 514.911133,106.201981 514.932251,91.301018 
	C514.942871,83.819855 514.977417,76.338722 515.014404,68.381905 
	C515.676941,70.244606 516.824585,72.569908 516.886292,74.923683 
	C517.112732,83.561775 516.853882,92.211914 517.032471,100.852249 
	C517.121643,105.162437 515.062561,107.075645 511.094513,106.929108 
	C507.568970,106.798912 504.062134,106.162521 500.359253,105.410950 
z"/>
<path fill="#414242" opacity="1.000000" stroke="none" 
	d="
M366.902588,143.588730 
	C365.951202,142.869873 365.103333,141.809616 364.451508,140.283813 
	C365.312073,138.449966 366.211426,137.123901 366.470673,135.682693 
	C366.532928,135.336441 364.272827,133.951523 363.429138,134.204803 
	C362.070435,134.612701 361.001373,135.985382 359.809967,136.950500 
	C358.902222,135.378845 357.994507,133.807190 356.954163,131.869690 
	C360.221741,129.284363 366.508423,129.435547 368.995697,131.796646 
	C372.008209,134.656311 371.449768,137.870224 366.902588,143.588730 
z"/>
<path fill="#4F4F4F" opacity="1.000000" stroke="none" 
	d="
M220.424103,105.426010 
	C231.823654,105.052795 243.432022,105.068443 255.037231,104.885216 
	C257.444214,104.847214 259.839569,104.071037 262.526917,103.410294 
	C263.003265,105.336586 262.912598,107.071098 259.914917,107.048141 
	C247.685135,106.954491 235.454132,107.021057 223.224258,106.934128 
	C222.357330,106.927971 221.495804,106.158737 220.424103,105.426010 
z"/>
<path fill="#4F4F4F" opacity="1.000000" stroke="none" 
	d="
M160.016357,105.488281 
	C172.289780,105.078346 184.671814,105.059158 197.538391,105.325882 
	C198.037933,105.786934 198.052887,105.962090 198.067856,106.137238 
	C195.839157,106.413345 193.612350,106.907722 191.381409,106.927185 
	C182.499008,107.004692 173.614731,106.982857 164.732712,106.872078 
	C163.192886,106.852882 161.660675,106.225502 160.016357,105.488281 
z"/>
<path fill="#414242" opacity="1.000000" stroke="none" 
	d="
M271.659302,23.547596 
	C271.946625,43.220833 271.984589,63.194565 271.959320,83.168213 
	C271.956818,85.146912 271.568085,87.125114 271.243134,89.487083 
	C271.215820,67.863106 271.304016,45.855587 271.659302,23.547596 
z"/>
<path fill="#4F4F4F" opacity="1.000000" stroke="none" 
	d="
M513.087830,65.672272 
	C512.744690,65.170380 511.855255,63.919086 512.152100,63.491707 
	C517.119812,56.338837 514.189819,48.270470 514.923279,40.649734 
	C515.113831,38.669830 514.973572,36.658081 515.012512,34.171955 
	C515.670288,35.303192 516.787964,36.906666 516.844421,38.546650 
	C517.055542,44.682514 517.311707,50.867077 516.741211,56.957523 
	C516.472229,59.829132 514.366821,62.528725 513.087830,65.672272 
z"/>
<path fill="#414242" opacity="1.000000" stroke="none" 
	d="
M261.160187,136.621521 
	C260.246246,137.559464 259.329315,138.111572 258.177917,138.885483 
	C256.423126,134.288437 258.051025,130.399338 262.417206,129.466232 
	C265.857178,128.731064 268.697845,129.860489 269.830780,133.013046 
	C266.597565,134.214340 263.877380,135.225021 261.160187,136.621521 
z"/>
<path fill="#494848" opacity="1.000000" stroke="none" 
	d="
M398.424957,112.692947 
	C398.644409,112.211266 399.092255,111.274696 399.773163,111.052628 
	C411.320404,107.286415 422.896606,103.608955 434.783997,100.002701 
	C422.988342,104.252541 410.875092,108.411552 398.424957,112.692947 
z"/>
<path fill="#494848" opacity="1.000000" stroke="none" 
	d="
M537.141602,105.292557 
	C547.319031,104.405617 557.783508,103.790985 568.631592,103.089043 
	C566.671753,104.329002 564.405151,106.603592 561.970032,106.801094 
	C555.384583,107.335152 548.725647,107.074463 542.100525,106.922531 
	C540.533691,106.886604 538.985413,106.039055 537.141602,105.292557 
z"/>
<path fill="#5A5A59" opacity="1.000000" stroke="none" 
	d="
M51.212193,39.766563 
	C52.352287,39.248127 53.480209,38.318867 54.634651,38.284664 
	C58.899147,38.158310 63.176132,38.459873 67.441071,38.339703 
	C70.291389,38.259388 71.692749,39.138500 71.931541,42.185043 
	C72.602425,50.744251 72.692848,50.733650 81.095474,50.927959 
	C82.421570,50.958626 83.746536,51.037579 85.515923,51.289871 
	C85.959816,51.485535 85.947464,51.784386 85.947464,51.784386 
	C82.456619,51.855446 78.955681,51.786304 75.477768,52.036842 
	C71.971832,52.289398 70.868401,50.912067 70.961700,47.423775 
	C71.161049,39.971077 70.990829,39.963146 63.509502,39.978184 
	C60.015530,39.985203 56.521595,40.008198 52.345097,39.965260 
	C51.662552,39.906563 51.212193,39.766563 51.212193,39.766563 
z"/>
<path fill="#414242" opacity="1.000000" stroke="none" 
	d="
M390.456940,42.844849 
	C389.985748,39.947979 389.823822,36.713493 389.565033,33.486778 
	C389.191437,28.828423 388.747528,24.175705 388.082550,19.226185 
	C388.709015,17.739922 389.586517,16.548059 390.463989,15.356195 
	C391.037415,15.514999 391.610840,15.673802 392.184265,15.832605 
	C391.697174,24.725304 391.210083,33.618000 390.456940,42.844849 
z"/>
<path fill="#444444" opacity="1.000000" stroke="none" 
	d="
M227.063293,138.566772 
	C226.461105,137.377945 225.921707,135.730804 225.162613,134.192062 
	C224.864822,133.588486 224.074936,133.227676 223.327881,132.841736 
	C224.310654,127.715843 228.431732,130.507843 231.236954,130.152283 
	C232.743011,129.961395 234.419785,131.117432 236.401535,131.796616 
	C233.420212,135.886841 226.521515,130.927673 227.063293,138.566772 
z"/>
<path fill="#5A5A59" opacity="1.000000" stroke="none" 
	d="
M236.998596,41.484623 
	C235.408035,38.075878 238.167770,38.030384 240.521652,38.005268 
	C247.655243,37.929157 254.790527,38.009224 262.382141,38.066353 
	C261.400360,38.762470 259.979858,39.935589 258.519440,39.987648 
	C252.900116,40.187965 247.266602,39.953331 241.641525,40.055237 
	C240.130722,40.082603 238.631073,40.727119 236.998596,41.484623 
z"/>
<path fill="#4F4F4F" opacity="1.000000" stroke="none" 
	d="
M47.060959,105.327560 
	C55.891888,105.018394 64.986374,105.014618 74.550903,105.006485 
	C74.211365,105.629791 73.411926,106.786819 72.590622,106.802567 
	C65.037102,106.947418 57.479286,106.935623 49.924255,106.843544 
	C49.052891,106.832916 48.190868,106.055084 47.060959,105.327560 
z"/>
<path fill="#494848" opacity="1.000000" stroke="none" 
	d="
M262.737640,90.548889 
	C255.908554,90.947197 248.981537,91.059097 242.060287,90.907364 
	C240.433395,90.871704 238.826019,89.945961 237.146774,89.167923 
	C243.912399,88.936111 250.742630,88.891747 257.568237,89.048470 
	C259.267090,89.087479 260.951019,89.776161 262.737640,90.548889 
z"/>
<path fill="#4F4F4F" opacity="1.000000" stroke="none" 
	d="
M110.026100,105.414108 
	C118.981773,105.022903 128.043625,105.036819 137.577011,105.027428 
	C136.386322,105.642982 134.713165,106.854279 133.063705,106.822830 
	C125.416298,106.677010 117.775459,106.186386 110.026100,105.414108 
z"/>
<path fill="#494848" opacity="1.000000" stroke="none" 
	d="
M86.329544,51.704529 
	C85.947464,51.784386 85.959816,51.485535 85.975578,51.337852 
	C86.003197,49.532970 85.805634,47.842426 86.063263,46.224354 
	C87.163338,39.315151 84.747574,33.610527 80.193367,28.211580 
	C84.764343,30.490599 88.943924,33.236015 87.676430,39.826130 
	C86.935524,43.678333 87.006111,47.686611 86.329544,51.704529 
z"/>
<path fill="#494848" opacity="1.000000" stroke="none" 
	d="
M210.915558,92.430199 
	C210.576477,90.280617 210.041534,87.673134 210.025711,85.062500 
	C209.938522,70.685043 209.978165,56.306805 210.211243,41.461746 
	C210.448181,40.994652 210.923553,41.005840 210.923553,41.005840 
	C210.935471,57.994175 210.947388,74.982506 210.915558,92.430199 
z"/>
<path fill="#494848" opacity="1.000000" stroke="none" 
	d="
M71.065979,83.511581 
	C72.623360,89.304642 71.619675,90.993431 65.598526,90.885147 
	C61.137543,90.804916 56.690823,89.931435 52.163147,89.155899 
	C56.731644,88.947784 61.387863,88.796715 66.013863,89.102646 
	C70.007568,89.366768 71.463524,87.701355 71.065979,83.511581 
z"/>
<path fill="#414242" opacity="1.000000" stroke="none" 
	d="
M388.166443,71.608910 
	C388.472778,63.544338 388.987823,55.123482 389.704010,46.391701 
	C389.395142,54.471390 388.885132,62.862007 388.166443,71.608910 
z"/>
<path fill="#4F4F4F" opacity="1.000000" stroke="none" 
	d="
M97.105453,36.579361 
	C97.230934,48.777042 97.324394,61.434589 97.284424,74.469688 
	C97.125145,62.244568 97.099289,49.641899 97.105453,36.579361 
z"/>
<path fill="#494848" opacity="1.000000" stroke="none" 
	d="
M288.689789,54.587914 
	C288.359833,54.597649 287.193878,54.333179 287.185852,54.037312 
	C287.042236,48.740215 287.017303,43.439335 287.011688,38.139221 
	C287.006775,33.501766 287.057434,28.864250 287.103333,23.780827 
	C287.414764,27.225094 287.829041,31.110840 287.970520,35.006493 
	C288.203979,41.433994 288.261200,47.867889 288.689789,54.587914 
z"/>
<path fill="#444444" opacity="1.000000" stroke="none" 
	d="
M356.029785,99.319458 
	C362.097870,102.192459 368.366241,105.354607 374.819641,108.797447 
	C368.746490,105.921631 362.488281,102.765114 356.029785,99.319458 
z"/>
<path fill="#414242" opacity="1.000000" stroke="none" 
	d="
M86.415100,94.975403 
	C85.804283,89.295639 85.587280,83.483177 85.231293,77.395905 
	C85.992348,77.619965 87.683441,78.138885 87.671379,78.614609 
	C87.534096,84.027779 87.136742,89.434349 86.415100,94.975403 
z"/>
<path fill="#4F4F4F" opacity="1.000000" stroke="none" 
	d="
M309.024139,105.059044 
	C313.568512,104.524719 318.112854,103.990395 322.937988,103.184425 
	C323.751099,103.532913 324.283447,104.153046 324.815796,104.773178 
	C323.852264,105.500626 322.921661,106.797264 321.919373,106.855293 
	C317.943573,107.085495 313.945374,106.928467 309.492310,106.568840 
	C309.027496,105.834839 309.025818,105.446945 309.024139,105.059044 
z"/>
<path fill="#4F4F4F" opacity="1.000000" stroke="none" 
	d="
M272.001862,105.102486 
	C276.779022,104.862259 281.556152,104.622025 286.901642,104.212891 
	C287.469971,104.043983 287.837646,104.027840 287.837646,104.027847 
	C286.643219,105.000679 285.498444,106.723526 284.245117,106.806511 
	C280.397583,107.061272 276.508484,106.687569 272.317535,106.063416 
	C271.999542,105.568649 272.001862,105.102486 272.001862,105.102486 
z"/>
<path fill="#414242" opacity="1.000000" stroke="none" 
	d="
M51.910076,77.435211 
	C51.799408,67.895889 51.719173,57.896389 51.754761,47.513420 
	C51.893890,57.078312 51.917202,67.026665 51.910076,77.435211 
z"/>
<path fill="#494848" opacity="1.000000" stroke="none" 
	d="
M306.012451,24.381313 
	C306.705170,29.957680 302.427612,33.437477 299.171509,37.759422 
	C301.206818,33.527740 303.521820,29.103926 306.012451,24.381313 
z"/>
<path fill="#333333" opacity="1.000000" stroke="none" 
	d="
M339.088837,142.278717 
	C339.826782,143.178268 340.375549,144.400848 341.021362,145.868454 
	C340.075226,148.047043 339.032013,149.980606 337.988800,151.914169 
	C337.327118,151.598038 336.665405,151.281891 336.003723,150.965744 
	C336.969025,148.177750 337.934326,145.389740 339.088837,142.278717 
z"/>
<path fill="#444444" opacity="1.000000" stroke="none" 
	d="
M210.960236,40.583832 
	C210.923553,41.005840 210.448181,40.994652 210.210236,40.992477 
	C208.728592,38.216225 207.622452,35.368969 206.197800,32.691170 
	C205.054092,30.541435 203.524292,28.597113 202.095612,26.205954 
	C205.980347,30.016195 212.262421,32.723312 210.960236,40.583832 
z"/>
<path fill="#444444" opacity="1.000000" stroke="none" 
	d="
M305.325134,135.371628 
	C305.665009,140.137283 305.906403,145.307495 306.038300,150.815094 
	C305.694763,146.027039 305.460693,140.901611 305.325134,135.371628 
z"/>
<path fill="#414242" opacity="1.000000" stroke="none" 
	d="
M376.586639,32.922550 
	C374.098114,36.199146 371.262482,39.485767 368.079742,42.860451 
	C370.568268,39.609867 373.403931,36.271221 376.586639,32.922550 
z"/>
<path fill="#4F4F4F" opacity="1.000000" stroke="none" 
	d="
M316.306732,38.998878 
	C318.203918,34.947254 320.384949,30.690769 322.848328,26.248350 
	C320.950623,30.306282 318.770599,34.550148 316.306732,38.998878 
z"/>
<path fill="#444444" opacity="1.000000" stroke="none" 
	d="
M287.896912,103.560616 
	C287.837646,104.027840 287.469971,104.043983 287.286926,104.053726 
	C287.284363,96.340080 287.464844,88.616684 287.761749,80.509621 
	C287.904175,87.781769 287.930176,95.437576 287.896912,103.560616 
z"/>
<path fill="#444444" opacity="1.000000" stroke="none" 
	d="
M401.154480,18.604856 
	C399.787384,19.195356 398.308990,19.443153 396.475708,19.804718 
	C396.120789,18.153805 396.120789,16.389122 396.120789,14.624438 
	C396.666107,14.372116 397.211456,14.119794 397.756775,13.867473 
	C398.852234,15.332366 399.947693,16.797258 401.154480,18.604856 
z"/>
<path fill="#444444" opacity="1.000000" stroke="none" 
	d="
M395.859467,22.393490 
	C395.883942,25.481270 395.742340,28.943762 395.362885,32.674595 
	C395.314514,29.551357 395.503967,26.159779 395.859467,22.393490 
z"/>
<path fill="#3A3C3C" opacity="1.000000" stroke="none" 
	d="
M464.062744,27.538389 
	C464.177490,33.433769 464.258820,39.790668 464.215393,46.532196 
	C464.070190,40.611191 464.049744,34.305550 464.062744,27.538389 
z"/>
<path fill="#444444" opacity="1.000000" stroke="none" 
	d="
M417.182526,40.552162 
	C415.128723,38.130768 413.137909,35.346661 411.088715,32.192059 
	C413.102051,34.610863 415.173798,37.400154 417.182526,40.552162 
z"/>
<path fill="#444444" opacity="1.000000" stroke="none" 
	d="
M395.018433,36.476173 
	C394.938507,39.507732 394.782623,42.938530 394.404785,46.644035 
	C394.436035,43.570965 394.689270,40.223186 395.018433,36.476173 
z"/>
<path fill="#494848" opacity="1.000000" stroke="none" 
	d="
M500.158905,79.627029 
	C500.247375,84.799126 500.303009,90.426010 500.262115,96.436127 
	C500.152405,91.240173 500.139252,85.661003 500.158905,79.627029 
z"/>
<path fill="#3A3C3C" opacity="1.000000" stroke="none" 
	d="
M306.103851,71.620026 
	C303.206512,70.848289 301.477570,68.900955 302.059998,65.182732 
	C303.418091,67.020653 304.696472,69.159744 306.103851,71.620026 
z"/>
<path fill="#494848" opacity="1.000000" stroke="none" 
	d="
M334.928955,88.433617 
	C337.455780,89.486893 340.009552,90.895241 342.741425,92.570984 
	C340.264954,91.488487 337.610443,90.138596 334.928955,88.433617 
z"/>
<path fill="#444444" opacity="1.000000" stroke="none" 
	d="
M198.399872,106.054207 
	C198.052887,105.962090 198.037933,105.786934 198.005890,105.349289 
	C199.847260,103.774559 201.705688,102.462341 203.923904,101.100739 
	C202.433105,102.691292 200.582504,104.331230 198.399872,106.054207 
z"/>
<path fill="#414242" opacity="1.000000" stroke="none" 
	d="
M380.684875,27.025549 
	C379.827454,28.776579 378.689789,30.724968 377.231506,32.806255 
	C378.075439,31.033739 379.240051,29.128325 380.684875,27.025549 
z"/>
<path fill="#414242" opacity="1.000000" stroke="none" 
	d="
M321.950775,102.002457 
	C320.997223,99.884003 320.043671,97.765541 319.061340,95.277557 
	C320.356110,97.026367 321.679718,99.144699 322.784790,101.617889 
	C322.361145,101.982658 322.155945,101.992561 321.950775,102.002457 
z"/>
<path fill="#444444" opacity="1.000000" stroke="none" 
	d="
M298.856628,92.378433 
	C300.121429,94.194031 301.503387,96.342789 302.919098,98.881012 
	C301.626495,97.084183 300.300140,94.897888 298.856628,92.378433 
z"/>
<path fill="#3A3C3C" opacity="1.000000" stroke="none" 
	d="
M356.665100,57.044289 
	C355.556580,58.526913 354.164978,60.172375 352.436951,61.896484 
	C353.527679,60.385792 354.954834,58.796459 356.665100,57.044289 
z"/>
<path fill="#444444" opacity="1.000000" stroke="none" 
	d="
M308.782166,104.846008 
	C309.025818,105.446945 309.027496,105.834839 309.031433,106.513924 
	C307.633331,105.127167 306.232941,103.449226 304.870850,101.403908 
	C306.119507,102.235336 307.329834,103.434151 308.782166,104.846008 
z"/>
<path fill="#414242" opacity="1.000000" stroke="none" 
	d="
M526.067139,65.533356 
	C526.181824,68.438416 526.265869,71.792885 526.232178,75.516083 
	C526.088440,72.584122 526.062439,69.283447 526.067139,65.533356 
z"/>
<path fill="#414242" opacity="1.000000" stroke="none" 
	d="
M319.027954,94.664459 
	C318.110626,93.514862 317.111298,92.029350 316.074188,90.179230 
	C317.006256,91.319260 317.976135,92.823898 319.027954,94.664459 
z"/>
<path fill="#3A3C3C" opacity="1.000000" stroke="none" 
	d="
M359.616455,53.098335 
	C359.063019,54.191452 358.239014,55.468430 357.121033,56.849434 
	C357.666687,55.729702 358.506256,54.505951 359.616455,53.098335 
z"/>
<path fill="#444444" opacity="1.000000" stroke="none" 
	d="
M422.935760,47.702354 
	C421.776001,46.534527 420.460510,45.074421 419.084900,43.266914 
	C420.276520,44.416363 421.528290,45.913216 422.935760,47.702354 
z"/>
<path fill="#414242" opacity="1.000000" stroke="none" 
	d="
M103.638084,28.933828 
	C102.833122,29.884289 101.695862,30.848759 100.230865,31.896643 
	C101.037354,30.969318 102.171570,29.958580 103.638084,28.933828 
z"/>
<path fill="#414242" opacity="1.000000" stroke="none" 
	d="
M453.137054,88.635139 
	C452.207001,87.833023 451.188690,86.706779 450.097656,85.243698 
	C451.032898,86.041573 452.040863,87.176292 453.137054,88.635139 
z"/>
<path fill="#3A3C3C" opacity="1.000000" stroke="none" 
	d="
M528.703369,32.053268 
	C528.239441,33.112579 527.510498,34.355637 526.518188,35.766739 
	C526.982666,34.702187 527.710510,33.469601 528.703369,32.053268 
z"/>
<path fill="#494848" opacity="1.000000" stroke="none" 
	d="
M298.599609,38.034889 
	C298.109100,39.185699 297.307068,40.444256 296.209167,41.854416 
	C296.704926,40.718231 297.496490,39.430435 298.599609,38.034889 
z"/>
<path fill="#414242" opacity="1.000000" stroke="none" 
	d="
M447.037598,80.662872 
	C446.128571,79.852676 445.146393,78.717499 444.095978,77.247833 
	C445.006653,78.054855 445.985565,79.196373 447.037598,80.662872 
z"/>
<path fill="#3A3C3C" opacity="1.000000" stroke="none" 
	d="
M464.062012,65.508514 
	C464.175201,67.453918 464.255859,69.833260 464.221191,72.557663 
	C464.080383,70.582634 464.054932,68.262543 464.062012,65.508514 
z"/>
<path fill="#414242" opacity="1.000000" stroke="none" 
	d="
M437.999146,68.669434 
	C437.162598,68.167633 436.238068,67.340652 435.159485,66.236557 
	C435.973999,66.754387 436.942566,67.549324 437.999146,68.669434 
z"/>
<path fill="#414242" opacity="1.000000" stroke="none" 
	d="
M441.133667,73.619354 
	C440.436523,72.837517 439.784882,71.710991 439.081970,70.249496 
	C439.746826,71.034569 440.462982,72.154625 441.133667,73.619354 
z"/>
<path fill="#494848" opacity="1.000000" stroke="none" 
	d="
M334.684082,84.088715 
	C334.951508,85.028709 334.938477,86.146950 334.909698,87.684341 
	C331.987000,87.175262 333.096039,85.733803 334.684082,84.088715 
z"/>
<path fill="#444444" opacity="1.000000" stroke="none" 
	d="
M425.143066,51.638618 
	C424.434937,50.852085 423.783112,49.715092 423.078430,48.241264 
	C423.750153,49.032341 424.474792,50.160248 425.143066,51.638618 
z"/>
<path fill="#414242" opacity="1.000000" stroke="none" 
	d="
M99.714188,32.055946 
	C99.211639,32.854954 98.436836,33.806934 97.363281,34.867615 
	C97.857002,34.053848 98.649460,33.131382 99.714188,32.055946 
z"/>
<path fill="#444444" opacity="1.000000" stroke="none" 
	d="
M205.310577,100.087906 
	C205.902832,99.283958 206.754807,98.281815 207.932190,97.161057 
	C207.361832,97.991539 206.466080,98.940628 205.310577,100.087906 
z"/>
<path fill="#4F4F4F" opacity="1.000000" stroke="none" 
	d="
M323.462097,26.118832 
	C323.135986,25.417427 323.122559,24.710482 323.120667,23.650101 
	C323.515015,23.280310 323.897858,23.263958 324.600250,23.461823 
	C324.919830,23.676039 325.045593,24.046085 325.045593,24.046080 
	C324.621979,24.735147 324.198395,25.424221 323.462097,26.118832 
z"/>
<path fill="#3A3C3C" opacity="1.000000" stroke="none" 
	d="
M535.681274,24.945559 
	C535.130737,25.748178 534.321899,26.736553 533.202637,27.849520 
	C533.735779,27.026514 534.579346,26.078913 535.681274,24.945559 
z"/>
<path fill="#3A3C3C" opacity="1.000000" stroke="none" 
	d="
M532.714294,28.078449 
	C532.137817,28.848766 531.295288,29.789955 530.143616,30.845158 
	C530.705750,30.055885 531.576965,29.152603 532.714294,28.078449 
z"/>
<path fill="#444444" opacity="1.000000" stroke="none" 
	d="
M430.085693,57.653603 
	C429.531128,57.100605 428.884430,56.225315 428.144348,55.028629 
	C428.698456,55.581924 429.346039,56.456619 430.085693,57.653603 
z"/>
<path fill="#414242" opacity="1.000000" stroke="none" 
	d="
M105.679016,25.918690 
	C105.431557,26.657099 104.921448,27.603542 104.166946,28.768831 
	C104.420486,28.034025 104.918427,27.080376 105.679016,25.918690 
z"/>
<path fill="#3A3C3C" opacity="1.000000" stroke="none" 
	d="
M310.050354,78.653595 
	C309.510529,78.098167 308.884521,77.224388 308.161804,76.034073 
	C308.698090,76.590111 309.331146,77.462685 310.050354,78.653595 
z"/>
<path fill="#444444" opacity="1.000000" stroke="none" 
	d="
M295.990295,87.303009 
	C296.536438,87.869713 297.154297,88.764351 297.860870,89.980988 
	C297.320404,89.412308 296.691193,88.521622 295.990295,87.303009 
z"/>
<path fill="#444444" opacity="1.000000" stroke="none" 
	d="
M376.915100,110.323578 
	C377.668793,110.565018 378.621918,111.079811 379.798920,111.836411 
	C379.053375,111.584465 378.083954,111.090706 376.915100,110.323578 
z"/>
<path fill="#414242" opacity="1.000000" stroke="none" 
	d="
M271.969116,104.758995 
	C272.001862,105.102486 271.999542,105.568649 271.990753,105.801575 
	C271.679565,104.643135 271.377136,103.251770 271.105225,101.487671 
	C271.402649,102.215111 271.669525,103.315308 271.969116,104.758995 
z"/>
<path fill="#3A3C3C" opacity="1.000000" stroke="none" 
	d="
M349.643005,65.967773 
	C349.409454,66.495064 348.857269,67.059052 348.061707,67.795540 
	C348.320312,67.313515 348.822327,66.658989 349.643005,65.967773 
z"/>
<path fill="#444444" opacity="1.000000" stroke="none" 
	d="
M419.012207,42.681549 
	C418.509796,42.476833 417.938568,41.946545 417.223083,41.158283 
	C417.700348,41.385532 418.321869,41.870754 419.012207,42.681549 
z"/>
<path fill="#444444" opacity="1.000000" stroke="none" 
	d="
M427.142151,53.661652 
	C426.662048,53.439796 426.031891,52.920418 425.210083,52.160282 
	C425.676331,52.401058 426.334198,52.882587 427.142151,53.661652 
z"/>
<path fill="#4F4F4F" opacity="1.000000" stroke="none" 
	d="
M514.967407,67.732056 
	C514.502747,67.480751 513.923462,66.934608 513.155029,66.157135 
	C513.594910,66.429611 514.223816,66.933411 514.967407,67.732056 
z"/>
<path fill="#444444" opacity="1.000000" stroke="none" 
	d="
M288.392029,74.182037 
	C288.195587,73.924728 288.192291,73.648346 288.188965,73.371971 
	C288.402893,73.544724 288.616852,73.717476 288.901978,74.031570 
	C288.973145,74.172928 288.585114,74.162979 288.392029,74.182037 
z"/>
<path fill="#414242" opacity="1.000000" stroke="none" 
	d="
M450.014893,84.685287 
	C449.514984,84.478218 448.941589,83.947556 448.209076,83.167725 
	C448.680450,83.399605 449.310944,83.880646 450.014893,84.685287 
z"/>
<path fill="#494848" opacity="1.000000" stroke="none" 
	d="
M80.198700,27.626469 
	C79.773659,27.392031 79.420570,26.849266 79.083145,26.099674 
	C79.489418,26.367947 79.880035,26.843046 80.198700,27.626469 
z"/>
<path fill="#414242" opacity="1.000000" stroke="none" 
	d="
M443.994843,76.691299 
	C443.506317,76.473579 442.937164,75.940857 442.201843,75.164886 
	C442.661865,75.406517 443.288055,75.891403 443.994843,76.691299 
z"/>
<path fill="#414242" opacity="1.000000" stroke="none" 
	d="
M526.094849,58.447170 
	C526.157654,58.875050 526.195435,59.651188 526.175598,60.657803 
	C526.101990,60.190662 526.085938,59.493046 526.094849,58.447170 
z"/>
<path fill="#444444" opacity="1.000000" stroke="none" 
	d="
M380.143524,112.267838 
	C380.744629,112.267250 381.571594,112.518341 382.700562,112.890198 
	C382.124847,112.847153 381.247101,112.683334 380.143524,112.267838 
z"/>
<path fill="#414242" opacity="1.000000" stroke="none" 
	d="
M51.227516,40.090996 
	C51.212193,39.766563 51.662552,39.906563 51.883804,39.988140 
	C52.052261,40.777454 51.999466,41.485188 51.911835,42.545868 
	C51.665615,42.071014 51.454227,41.243225 51.227516,40.090996 
z"/>
<path fill="#494848" opacity="1.000000" stroke="none" 
	d="
M295.751099,42.110252 
	C295.693817,42.452225 295.377563,42.975101 294.896027,43.757008 
	C294.984528,43.441074 295.238312,42.866112 295.751099,42.110252 
z"/>
<path fill="#3A3C3C" opacity="1.000000" stroke="none" 
	d="
M350.718994,64.002579 
	C350.708832,64.338737 350.466431,64.896751 350.079407,65.722549 
	C350.118774,65.401695 350.302765,64.813065 350.718994,64.002579 
z"/>
<path fill="#3A3C3C" opacity="1.000000" stroke="none" 
	d="
M307.874939,74.759216 
	C307.712341,74.697151 307.481995,74.411171 307.214355,73.988800 
	C307.441956,74.029427 307.652008,74.257050 307.874939,74.759216 
z"/>
<path fill="#444444" opacity="1.000000" stroke="none" 
	d="
M287.923828,77.615723 
	C287.883942,77.432457 287.868317,76.944572 287.875977,76.273712 
	C287.915588,76.497528 287.931854,76.904312 287.923828,77.615723 
z"/>
<path fill="#414242" opacity="1.000000" stroke="none" 
	d="
M448.119415,82.667252 
	C447.793884,82.476379 447.507111,81.974464 447.114319,81.202728 
	C447.391632,81.407333 447.774902,81.881767 448.119415,82.667252 
z"/>
<path fill="#494848" opacity="1.000000" stroke="none" 
	d="
M335.691833,83.043579 
	C335.663818,83.220413 335.421906,83.531990 335.053833,83.929665 
	C335.111115,83.736610 335.294525,83.457466 335.691833,83.043579 
z"/>
<path fill="#444444" opacity="1.000000" stroke="none" 
	d="
M294.933014,85.292610 
	C295.151978,85.510895 295.450317,86.027100 295.879150,86.811188 
	C295.677246,86.582886 295.344818,86.086708 294.933014,85.292610 
z"/>
<path fill="#444444" opacity="1.000000" stroke="none" 
	d="
M303.285461,100.313759 
	C303.610901,100.298759 304.083405,100.536469 304.770020,100.930191 
	C304.466949,100.912964 303.949738,100.739716 303.285461,100.313759 
z"/>
<path fill="#414242" opacity="1.000000" stroke="none" 
	d="
M356.739197,132.598572 
	C356.805176,132.760635 356.622803,133.081055 356.295166,133.636032 
	C356.263550,133.499374 356.377228,133.128143 356.739197,132.598572 
z"/>
<path fill="#4F4F4F" opacity="1.000000" stroke="none" 
	d="
M315.178101,40.967377 
	C315.223206,40.913013 315.422302,40.707897 315.721619,40.302223 
	C315.794891,40.442970 315.631653,40.681290 315.178101,40.967377 
z"/>
<path fill="#3A3C3C" opacity="1.000000" stroke="none" 
	d="
M464.122681,24.301828 
	C464.126678,24.302048 464.110565,24.507246 464.103882,24.815838 
	C464.104156,24.918449 464.093475,24.506027 464.122681,24.301828 
z"/>
<path fill="#333333" opacity="1.000000" stroke="none" 
	d="
M325.144104,23.945042 
	C325.045593,24.046085 324.919830,23.676039 324.887054,23.483456 
	C324.854279,23.290874 325.216675,23.458914 325.216675,23.458914 
	C325.216675,23.458914 325.242645,23.843998 325.144104,23.945042 
z"/>
<path fill="#3A3C3C" opacity="1.000000" stroke="none" 
	d="
M577.898376,40.718613 
	C577.897705,40.718716 577.895508,40.513592 577.872253,40.206718 
	C577.861877,40.104923 577.907532,40.513336 577.898376,40.718613 
z"/>
<path fill="#414242" opacity="1.000000" stroke="none" 
	d="
M108.665512,23.198502 
	C108.632896,23.311138 108.349800,23.503521 107.857140,23.846321 
	C107.903397,23.757240 108.159218,23.517744 108.665512,23.198502 
z"/>
<path fill="#414242" opacity="1.000000" stroke="none" 
	d="
M242.259415,146.973068 
	C242.240067,146.823334 242.473495,146.580551 242.889496,146.163208 
	C242.885452,146.285782 242.698822,146.582901 242.259415,146.973068 
z"/>
<path fill="#414242" opacity="1.000000" stroke="none" 
	d="
M438.954865,69.775024 
	C438.816986,69.784004 438.572937,69.547508 438.154053,69.125641 
	C438.269073,69.136703 438.558899,69.333138 438.954865,69.775024 
z"/>
<path fill="#444444" opacity="1.000000" stroke="none" 
	d="
M394.166870,49.312744 
	C394.099274,49.309963 394.084869,49.482128 394.168213,49.738998 
	C394.206207,49.818192 394.160370,49.482182 394.166870,49.312744 
z"/>
<path fill="#444444" opacity="1.000000" stroke="none" 
	d="
M354.075684,98.179535 
	C354.150818,98.199738 354.346100,98.386818 354.707123,98.693085 
	C354.567688,98.766785 354.342010,98.611488 354.075684,98.179535 
z"/>
<path fill="#444444" opacity="1.000000" stroke="none" 
	d="
M375.045502,109.206001 
	C375.177704,109.186256 375.405457,109.394493 375.789276,109.773972 
	C375.604462,109.891502 375.336365,109.721092 375.045502,109.206001 
z"/>
<path fill="#414242" opacity="1.000000" stroke="none" 
	d="
M442.038086,74.688469 
	C441.815399,74.769920 441.575439,74.547386 441.197693,74.115356 
	C441.361816,74.085251 441.682129,74.244789 442.038086,74.688469 
z"/>
<path fill="#414242" opacity="1.000000" stroke="none" 
	d="
M51.871506,80.695343 
	C51.914688,80.698715 51.934818,80.505013 51.891857,80.211716 
	C51.869701,80.116669 51.889389,80.502838 51.871506,80.695343 
z"/>
<path fill="#4F4F4F" opacity="1.000000" stroke="none" 
	d="
M322.132751,102.187271 
	C322.155945,101.992561 322.361145,101.982658 322.874359,101.956833 
	C323.273193,102.110603 323.363953,102.280312 323.312195,102.701614 
	C322.884735,102.759499 322.599731,102.565796 322.132751,102.187271 
z"/>
<path fill="#414242" opacity="1.000000" stroke="none" 
	d="
M315.791809,88.677689 
	C315.681976,88.653313 315.488251,88.392387 315.142944,87.939102 
	C315.225983,87.981339 315.464844,88.212807 315.791809,88.677689 
z"/>
<path fill="#4F4F4F" opacity="1.000000" stroke="none" 
	d="
M262.834900,100.676346 
	C263.013245,100.702141 263.058960,100.528603 262.888306,100.255142 
	C262.811127,100.193108 262.841461,100.514877 262.834900,100.676346 
z"/>
<path fill="#494848" opacity="1.000000" stroke="none" 
	d="
M437.323547,99.776573 
	C437.339630,99.673256 437.569122,99.487137 437.957336,99.145752 
	C437.970215,99.263550 437.777191,99.497971 437.323547,99.776573 
z"/>
<path fill="#414242" opacity="1.000000" stroke="none" 
	d="
M454.769775,90.659691 
	C454.659302,90.633842 454.474121,90.369522 454.147308,89.907867 
	C454.263062,89.918922 454.492859,90.155823 454.769775,90.659691 
z"/>
<path fill="#444444" opacity="1.000000" stroke="none" 
	d="
M209.238083,96.137939 
	C209.292770,96.041573 209.598221,95.745094 210.116364,95.208992 
	C210.048996,95.292191 209.768921,95.615013 209.238083,96.137939 
z"/>
<path fill="#000000" opacity="1.000000" stroke="none" 
	d="
M499.891296,40.148388 
	C499.898132,44.600544 500.093597,49.064873 499.807404,53.498112 
	C499.710022,55.006832 498.399841,56.437263 497.068176,58.005501 
	C496.492554,58.107529 496.094452,58.123238 496.094452,58.123238 
	C491.418030,58.043404 486.741638,57.963573 481.568909,57.405998 
	C480.974670,51.591457 480.876801,46.254654 481.094482,40.614532 
	C487.570465,40.256943 493.730896,40.202663 499.891296,40.148388 
z"/>
<path fill="#5A5A59" opacity="1.000000" stroke="none" 
	d="
M499.865173,39.862457 
	C493.730896,40.202663 487.570465,40.256943 480.960938,40.566803 
	C480.511810,40.822388 480.240112,40.740837 480.240112,40.740837 
	C480.537872,40.165581 480.688354,39.383377 481.157776,39.049259 
	C483.829254,37.147709 496.861053,37.574471 499.865173,39.862457 
z"/>
<path fill="#414242" opacity="1.000000" stroke="none" 
	d="
M480.197205,41.229084 
	C480.240112,40.740837 480.511810,40.822388 480.645386,40.870117 
	C480.876801,46.254654 480.974670,51.591457 481.112244,57.384201 
	C480.819397,52.465874 480.486847,47.091602 480.197205,41.229084 
z"/>
<path fill="#414242" opacity="1.000000" stroke="none" 
	d="
M496.193176,58.103966 
	C496.094452,58.123238 496.492554,58.107529 496.690308,58.129795 
	C496.693970,58.091255 496.495239,58.068798 496.193176,58.103966 
z"/>
<path fill="#000000" opacity="1.000000" stroke="none" 
	d="
M194.141327,42.863029 
	C194.110611,43.681541 194.079895,44.500057 194.066742,46.183880 
	C194.105209,58.322090 194.126083,69.594986 194.146973,80.867889 
	C193.910843,83.387054 193.674713,85.906212 192.732483,88.739502 
	C188.204590,89.031029 184.372971,88.829506 180.563889,89.038551 
	C177.082733,89.229599 175.896347,87.878395 175.933487,84.439056 
	C176.093155,69.651291 176.065216,54.861492 176.565353,40.035736 
	C182.628174,40.034599 188.231277,40.070156 193.883530,40.449181 
	C194.002243,41.482777 194.071793,42.172901 194.141327,42.863029 
z"/>
<path fill="#494848" opacity="1.000000" stroke="none" 
	d="
M176.105621,40.072433 
	C176.065216,54.861492 176.093155,69.651291 175.933487,84.439056 
	C175.896347,87.878395 177.082733,89.229599 180.563889,89.038551 
	C184.372971,88.829506 188.204590,89.031029 192.490860,89.070343 
	C187.499756,89.539284 182.047211,90.161568 176.585327,90.258598 
	C175.775192,90.272987 174.199524,87.810432 174.197281,86.491745 
	C174.170761,70.890083 174.376251,55.288025 174.873840,39.488758 
	C175.519836,39.551777 175.812729,39.812103 176.105621,40.072433 
z"/>
<path fill="#5A5A59" opacity="1.000000" stroke="none" 
	d="
M176.565353,40.035736 
	C175.812729,39.812103 175.519836,39.551777 175.008240,39.093781 
	C181.386246,39.034306 187.982925,39.172497 194.492767,39.677711 
	C194.215393,40.065060 194.024872,40.085384 193.834366,40.105713 
	C188.231277,40.070156 182.628174,40.034599 176.565353,40.035736 
z"/>
<path fill="#444444" opacity="1.000000" stroke="none" 
	d="
M194.255234,80.482513 
	C194.126083,69.594986 194.105209,58.322090 194.116257,46.591225 
	C194.219971,57.454552 194.291748,68.775841 194.255234,80.482513 
z"/>
<path fill="#444444" opacity="1.000000" stroke="none" 
	d="
M193.883530,40.449181 
	C194.024872,40.085384 194.215393,40.065060 194.691040,40.009399 
	C194.769012,40.749233 194.561844,41.524403 194.248001,42.581299 
	C194.071793,42.172901 194.002243,41.482777 193.883530,40.449181 
z"/>
<path fill="#5A5A59" opacity="1.000000" stroke="none" 
	d="
M113.093826,39.964489 
	C115.997467,39.292568 118.890877,38.095432 121.806503,38.038631 
	C135.218201,37.777355 134.032669,36.961651 134.062576,50.330894 
	C134.087036,61.263416 134.099289,72.197426 133.924606,83.127708 
	C133.889404,85.330849 132.989960,87.520172 132.209351,89.647285 
	C131.940674,89.364151 131.951630,89.149597 132.017181,88.473297 
	C132.066330,73.544807 131.986069,59.077412 132.111572,44.611801 
	C132.140564,41.270901 131.247391,39.754562 127.639877,39.973328 
	C123.166481,40.244602 118.666229,40.073132 113.906754,40.059917 
	C113.455223,40.006111 113.274529,39.985298 113.093826,39.964489 
z"/>
<path fill="#444444" opacity="1.000000" stroke="none" 
	d="
M131.962585,88.935051 
	C131.951630,89.149597 131.940674,89.364151 131.904602,89.901459 
	C129.608749,90.495392 127.341431,90.965546 125.066719,91.004532 
	C112.909241,91.212845 112.908600,91.175621 113.277695,78.407211 
	C113.474907,77.952957 113.830956,77.973244 113.887527,78.429359 
	C113.952698,80.379143 114.118225,81.891808 113.940254,83.362900 
	C113.420219,87.661583 115.079376,89.436104 119.519180,89.083511 
	C123.644890,88.755852 127.813095,88.963234 131.962585,88.935051 
z"/>
<path fill="#4F4F4F" opacity="1.000000" stroke="none" 
	d="
M113.830956,77.973244 
	C113.830956,77.973244 113.474907,77.952957 113.297775,77.941589 
	C113.109772,65.589355 113.098900,53.248493 113.090927,40.436058 
	C113.274529,39.985298 113.455223,40.006111 113.837997,40.518326 
	C113.970367,53.330898 113.900658,65.652069 113.830956,77.973244 
z"/>
<path fill="#444444" opacity="1.000000" stroke="none" 
	d="
M560.989502,39.014797 
	C561.653076,41.149998 562.860291,43.277390 562.891113,45.421696 
	C563.074524,58.177086 563.041077,70.936707 562.964600,83.694206 
	C562.927917,89.818649 561.836487,90.885010 555.593506,90.901413 
	C551.303406,90.912689 547.012390,90.565315 542.514526,90.039459 
	C542.553345,89.435600 542.799438,89.170540 543.509644,88.938072 
	C547.788879,88.994629 551.621765,88.797417 555.414551,89.100830 
	C559.758972,89.448387 561.198303,87.838013 561.120667,83.449142 
	C560.865540,69.020897 560.981689,54.586079 560.964355,39.869057 
	C560.978882,39.394489 560.984192,39.204647 560.989502,39.014797 
z"/>
<path fill="#4F4F4F" opacity="1.000000" stroke="none" 
	d="
M543.045532,88.905487 
	C542.799438,89.170540 542.553345,89.435600 542.123108,89.901932 
	C541.624756,85.659897 541.095154,81.219292 541.039429,76.772751 
	C540.906311,66.155052 541.116333,55.532574 540.940369,44.916126 
	C540.865723,40.412258 541.877197,38.050964 547.130249,38.771904 
	C551.368958,39.353619 555.742737,38.951263 560.523010,39.000145 
	C560.984192,39.204647 560.978882,39.394489 560.500671,39.830826 
	C555.871826,40.066074 551.706665,40.221344 547.562744,39.991894 
	C544.131226,39.801884 542.879211,41.021378 542.916992,44.520813 
	C543.076782,59.314442 543.021973,74.110390 543.045532,88.905487 
z"/>
<path fill="#3A3C3C" opacity="1.000000" stroke="none" 
	d="
M362.471710,52.495815 
	C362.464539,52.505093 362.478882,52.486538 362.471710,52.495815 
z"/>
<path fill="#3A3C3C" opacity="1.000000" stroke="none" 
	d="
M243.979935,139.477264 
	C243.994354,139.479095 243.965515,139.475433 243.979935,139.477264 
z"/>
<path fill="#000000" opacity="1.000000" stroke="none" 
	d="
M359.909515,137.307037 
	C361.001373,135.985382 362.070435,134.612701 363.429138,134.204803 
	C364.272827,133.951523 366.532928,135.336441 366.470673,135.682693 
	C366.211426,137.123901 365.312073,138.449966 364.347473,139.998108 
	C362.701294,139.339828 361.355194,138.501709 359.909515,137.307037 
z"/>
<path fill="#000000" opacity="1.000000" stroke="none" 
	d="
M113.887527,78.429359 
	C113.900658,65.652069 113.970367,53.330898 114.108826,40.551323 
	C118.666229,40.073132 123.166481,40.244602 127.639877,39.973328 
	C131.247391,39.754562 132.140564,41.270901 132.111572,44.611801 
	C131.986069,59.077412 132.066330,73.544807 132.017181,88.473297 
	C127.813095,88.963234 123.644890,88.755852 119.519180,89.083511 
	C115.079376,89.436104 113.420219,87.661583 113.940254,83.362900 
	C114.118225,81.891808 113.952698,80.379143 113.887527,78.429359 
z"/>
<path fill="#000000" opacity="1.000000" stroke="none" 
	d="
M543.509644,88.938080 
	C543.021973,74.110390 543.076782,59.314442 542.916992,44.520813 
	C542.879211,41.021378 544.131226,39.801884 547.562744,39.991894 
	C551.706665,40.221344 555.871826,40.066074 560.491577,40.115551 
	C560.981689,54.586079 560.865540,69.020897 561.120667,83.449142 
	C561.198303,87.838013 559.758972,89.448387 555.414551,89.100830 
	C551.621765,88.797417 547.788879,88.994629 543.509644,88.938080 
z"/>
</svg>